<svg id="Layer_1" xmlns="http://www.w3.org/2000/svg" xmlns:xlink="http://www.w3.org/1999/xlink" viewBox="0 0 386 184"><style>.st0{opacity:5e-2;enable-background:new}.st1{clip-path:url(#SVGID_2_)}.st2{fill:none}.st3{fill:#0a2a66}.st4{fill:#37c5fd}.st5{fill:#93dbf7}.st6{fill:#fff}</style><title>QuizNotStarted</title><g class="st0"><defs><path id="SVGID_1_" d="M261.6 184v-.2l-88.6.2v-.3l-96.7.3s3.4-136.8 72.3-136.8c16.7 0 30 8 40.5 20.2 10.5-37 27.8-61.1 56.2-61.1 25.4 0 42.9 17.7 54.8 49.4 4-2.3 8.5-3.5 13-3.5 49 0 56.5 131.6 56.5 131.6l-108 .2z"/></defs><clipPath id="SVGID_2_"><use xlink:href="#SVGID_1_" overflow="visible"/></clipPath><g class="st1"><path class="st2" d="M363.8 179h9.8v9.8h-9.8z"/><path class="st2" d="M363.8 179h9.8v9.8h-9.8z"/><circle cx="368.7" cy="183.9" r="1.9"/></g><g class="st1"><path class="st2" d="M363.8 169.3h9.8v9.8h-9.8z"/><path class="st2" d="M363.8 169.3h9.8v9.8h-9.8z"/><circle cx="368.7" cy="174.1" r="1.9"/></g><g class="st1"><path class="st2" d="M363.8 159.5h9.8v9.8h-9.8z"/><path class="st2" d="M363.8 159.5h9.8v9.8h-9.8z"/><circle cx="368.7" cy="164.4" r="1.9"/></g><g class="st1"><path class="st2" d="M363.8 149.8h9.8v9.8h-9.8z"/><path class="st2" d="M363.8 149.8h9.8v9.8h-9.8z"/><circle cx="368.7" cy="154.6" r="1.9"/></g><g class="st1"><path class="st2" d="M363.8 140h9.8v9.8h-9.8z"/><path class="st2" d="M363.8 140h9.8v9.8h-9.8z"/><circle cx="368.7" cy="144.9" r="1.9"/></g><g class="st1"><path class="st2" d="M363.8 130.3h9.8v9.8h-9.8z"/><path class="st2" d="M363.8 130.3h9.8v9.8h-9.8z"/><circle cx="368.7" cy="135.1" r="1.9"/></g><g class="st1"><path class="st2" d="M363.8 120.5h9.8v9.8h-9.8z"/><path class="st2" d="M363.8 120.5h9.8v9.8h-9.8z"/><circle cx="368.7" cy="125.4" r="1.9"/></g><g class="st1"><path class="st2" d="M363.8 110.8h9.8v9.8h-9.8z"/><path class="st2" d="M363.8 110.8h9.8v9.8h-9.8z"/><circle cx="368.7" cy="115.6" r="1.9"/></g><g class="st1"><path class="st2" d="M363.8 101h9.8v9.8h-9.8z"/><path class="st2" d="M363.8 101h9.8v9.8h-9.8z"/><circle cx="368.7" cy="105.9" r="1.9"/></g><g class="st1"><path class="st2" d="M363.8 91.3h9.8v9.8h-9.8z"/><path class="st2" d="M363.8 91.3h9.8v9.8h-9.8z"/><circle cx="368.7" cy="96.1" r="1.9"/></g><g class="st1"><path class="st2" d="M363.8 81.5h9.8v9.8h-9.8z"/><path class="st2" d="M363.8 81.5h9.8v9.8h-9.8z"/><circle cx="368.7" cy="86.4" r="1.9"/></g><g class="st1"><path class="st2" d="M363.8 71.8h9.8v9.8h-9.8z"/><path class="st2" d="M363.8 71.8h9.8v9.8h-9.8z"/><circle cx="368.7" cy="76.6" r="1.9"/></g><g class="st1"><path class="st2" d="M363.8 62h9.8v9.8h-9.8z"/><path class="st2" d="M363.8 62h9.8v9.8h-9.8z"/><circle cx="368.7" cy="66.9" r="1.9"/></g><g class="st1"><path class="st2" d="M363.8 52.3h9.8v9.8h-9.8z"/><path class="st2" d="M363.8 52.3h9.8v9.8h-9.8z"/><circle cx="368.7" cy="57.1" r="1.9"/></g><g class="st1"><path class="st2" d="M363.8 42.5h9.8v9.8h-9.8z"/><path class="st2" d="M363.8 42.5h9.8v9.8h-9.8z"/><circle cx="368.7" cy="47.4" r="1.9"/></g><g class="st1"><path class="st2" d="M363.8 32.8h9.8v9.8h-9.8z"/><path class="st2" d="M363.8 32.8h9.8v9.8h-9.8z"/><circle cx="368.7" cy="37.6" r="1.9"/></g><g class="st1"><path class="st2" d="M363.8 23h9.8v9.8h-9.8z"/><path class="st2" d="M363.8 23h9.8v9.8h-9.8z"/><circle cx="368.7" cy="27.9" r="1.9"/></g><g class="st1"><path class="st2" d="M363.8 13.3h9.8v9.8h-9.8z"/><path class="st2" d="M363.8 13.3h9.8v9.8h-9.8z"/><circle cx="368.7" cy="18.1" r="1.9"/></g><g class="st1"><path class="st2" d="M363.8 3.5h9.8v9.8h-9.8z"/><path class="st2" d="M363.8 3.5h9.8v9.8h-9.8z"/><circle cx="368.7" cy="8.4" r="1.9"/></g><g class="st1"><path class="st2" d="M354.1 179h9.8v9.8h-9.8z"/><path class="st2" d="M354.1 179h9.8v9.8h-9.8z"/><circle cx="359" cy="183.9" r="1.9"/></g><g class="st1"><path class="st2" d="M354.1 169.3h9.8v9.8h-9.8z"/><path class="st2" d="M354.1 169.3h9.8v9.8h-9.8z"/><circle cx="359" cy="174.1" r="1.9"/></g><g class="st1"><path class="st2" d="M354.1 159.5h9.8v9.8h-9.8z"/><path class="st2" d="M354.1 159.5h9.8v9.8h-9.8z"/><circle cx="359" cy="164.4" r="1.9"/></g><g class="st1"><path class="st2" d="M354.1 149.8h9.8v9.8h-9.8z"/><path class="st2" d="M354.1 149.8h9.8v9.8h-9.8z"/><circle cx="359" cy="154.6" r="1.9"/></g><g class="st1"><path class="st2" d="M354.1 140h9.8v9.8h-9.8z"/><path class="st2" d="M354.1 140h9.8v9.8h-9.8z"/><circle cx="359" cy="144.9" r="1.9"/></g><g class="st1"><path class="st2" d="M354.1 130.3h9.8v9.8h-9.8z"/><path class="st2" d="M354.1 130.3h9.8v9.8h-9.8z"/><circle cx="359" cy="135.1" r="1.9"/></g><g class="st1"><path class="st2" d="M354.1 120.5h9.8v9.8h-9.8z"/><path class="st2" d="M354.1 120.5h9.8v9.8h-9.8z"/><circle cx="359" cy="125.4" r="1.9"/></g><g class="st1"><path class="st2" d="M354.1 110.8h9.8v9.8h-9.8z"/><path class="st2" d="M354.1 110.8h9.8v9.8h-9.8z"/><circle cx="359" cy="115.6" r="1.9"/></g><g class="st1"><path class="st2" d="M354.1 101h9.8v9.8h-9.8z"/><path class="st2" d="M354.1 101h9.8v9.8h-9.8z"/><circle cx="359" cy="105.9" r="1.9"/></g><g class="st1"><path class="st2" d="M354.1 91.3h9.8v9.8h-9.8z"/><path class="st2" d="M354.1 91.3h9.8v9.8h-9.8z"/><circle cx="359" cy="96.1" r="1.9"/></g><g class="st1"><path class="st2" d="M354.1 81.5h9.8v9.8h-9.8z"/><path class="st2" d="M354.1 81.5h9.8v9.8h-9.8z"/><circle cx="359" cy="86.4" r="1.9"/></g><g class="st1"><path class="st2" d="M354.1 71.8h9.8v9.8h-9.8z"/><path class="st2" d="M354.1 71.8h9.8v9.8h-9.8z"/><circle cx="359" cy="76.6" r="1.9"/></g><g class="st1"><path class="st2" d="M354.1 62h9.8v9.8h-9.8z"/><path class="st2" d="M354.1 62h9.8v9.8h-9.8z"/><circle cx="359" cy="66.9" r="1.9"/></g><g class="st1"><path class="st2" d="M354.1 52.3h9.8v9.8h-9.8z"/><path class="st2" d="M354.1 52.3h9.8v9.8h-9.8z"/><circle cx="359" cy="57.1" r="1.9"/></g><g class="st1"><path class="st2" d="M354.1 42.5h9.8v9.8h-9.8z"/><path class="st2" d="M354.1 42.5h9.8v9.8h-9.8z"/><circle cx="359" cy="47.4" r="1.9"/></g><g class="st1"><path class="st2" d="M354.1 32.8h9.8v9.8h-9.8z"/><path class="st2" d="M354.1 32.8h9.8v9.8h-9.8z"/><circle cx="359" cy="37.6" r="1.9"/></g><g class="st1"><path class="st2" d="M354.1 23h9.8v9.8h-9.8z"/><path class="st2" d="M354.1 23h9.8v9.8h-9.8z"/><circle cx="359" cy="27.9" r="1.9"/></g><g class="st1"><path class="st2" d="M354.1 13.3h9.8v9.8h-9.8z"/><path class="st2" d="M354.1 13.3h9.8v9.8h-9.8z"/><circle cx="359" cy="18.1" r="1.9"/></g><g class="st1"><path class="st2" d="M354.1 3.5h9.8v9.8h-9.8z"/><path class="st2" d="M354.1 3.5h9.8v9.8h-9.8z"/><circle cx="359" cy="8.4" r="1.9"/></g><g class="st1"><path class="st2" d="M344.3 179h9.8v9.8h-9.8z"/><path class="st2" d="M344.3 179h9.8v9.8h-9.8z"/><circle cx="349.2" cy="183.9" r="1.9"/></g><g class="st1"><path class="st2" d="M344.3 169.3h9.8v9.8h-9.8z"/><path class="st2" d="M344.3 169.3h9.8v9.8h-9.8z"/><circle cx="349.2" cy="174.1" r="1.9"/></g><g class="st1"><path class="st2" d="M344.3 159.5h9.8v9.8h-9.8z"/><path class="st2" d="M344.3 159.5h9.8v9.8h-9.8z"/><circle cx="349.2" cy="164.4" r="1.9"/></g><g class="st1"><path class="st2" d="M344.3 149.8h9.8v9.8h-9.8z"/><path class="st2" d="M344.3 149.8h9.8v9.8h-9.8z"/><circle cx="349.2" cy="154.6" r="1.9"/></g><g class="st1"><path class="st2" d="M344.3 140h9.8v9.8h-9.8z"/><path class="st2" d="M344.3 140h9.8v9.8h-9.8z"/><circle cx="349.2" cy="144.9" r="1.9"/></g><g class="st1"><path class="st2" d="M344.3 130.3h9.8v9.8h-9.8z"/><path class="st2" d="M344.3 130.3h9.8v9.8h-9.8z"/><circle cx="349.2" cy="135.1" r="1.9"/></g><g class="st1"><path class="st2" d="M344.3 120.5h9.8v9.8h-9.8z"/><path class="st2" d="M344.3 120.5h9.8v9.8h-9.8z"/><circle cx="349.2" cy="125.4" r="1.9"/></g><g class="st1"><path class="st2" d="M344.3 110.8h9.8v9.8h-9.8z"/><path class="st2" d="M344.3 110.8h9.8v9.8h-9.8z"/><circle cx="349.2" cy="115.6" r="1.9"/></g><g class="st1"><path class="st2" d="M344.3 101h9.8v9.8h-9.8z"/><path class="st2" d="M344.3 101h9.8v9.8h-9.8z"/><circle cx="349.2" cy="105.9" r="1.9"/></g><g class="st1"><path class="st2" d="M344.3 91.3h9.8v9.8h-9.8z"/><path class="st2" d="M344.3 91.3h9.8v9.8h-9.8z"/><circle cx="349.2" cy="96.1" r="1.9"/></g><g class="st1"><path class="st2" d="M344.3 81.5h9.8v9.8h-9.8z"/><path class="st2" d="M344.3 81.5h9.8v9.8h-9.8z"/><circle cx="349.2" cy="86.4" r="1.9"/></g><g class="st1"><path class="st2" d="M344.3 71.8h9.8v9.8h-9.8z"/><path class="st2" d="M344.3 71.8h9.8v9.8h-9.8z"/><circle cx="349.2" cy="76.6" r="1.9"/></g><g class="st1"><path class="st2" d="M344.3 62h9.8v9.8h-9.8z"/><path class="st2" d="M344.3 62h9.8v9.8h-9.8z"/><circle cx="349.2" cy="66.9" r="1.9"/></g><g class="st1"><path class="st2" d="M344.3 52.3h9.8v9.8h-9.8z"/><path class="st2" d="M344.3 52.3h9.8v9.8h-9.8z"/><circle cx="349.2" cy="57.1" r="1.9"/></g><g class="st1"><path class="st2" d="M344.3 42.5h9.8v9.8h-9.8z"/><path class="st2" d="M344.3 42.5h9.8v9.8h-9.8z"/><circle cx="349.2" cy="47.4" r="1.9"/></g><g class="st1"><path class="st2" d="M344.3 32.8h9.8v9.8h-9.8z"/><path class="st2" d="M344.3 32.8h9.8v9.8h-9.8z"/><circle cx="349.2" cy="37.6" r="1.9"/></g><g class="st1"><path class="st2" d="M344.3 23h9.8v9.8h-9.8z"/><path class="st2" d="M344.3 23h9.8v9.8h-9.8z"/><circle cx="349.2" cy="27.9" r="1.9"/></g><g class="st1"><path class="st2" d="M344.3 13.3h9.8v9.8h-9.8z"/><path class="st2" d="M344.3 13.3h9.8v9.8h-9.8z"/><circle cx="349.2" cy="18.1" r="1.9"/></g><g class="st1"><path class="st2" d="M344.3 3.5h9.8v9.8h-9.8z"/><path class="st2" d="M344.3 3.5h9.8v9.8h-9.8z"/><circle cx="349.2" cy="8.4" r="1.9"/></g><g class="st1"><path class="st2" d="M334.6 179h9.8v9.8h-9.8z"/><path class="st2" d="M334.6 179h9.8v9.8h-9.8z"/><circle cx="339.5" cy="183.9" r="1.9"/></g><g class="st1"><path class="st2" d="M334.6 169.3h9.8v9.8h-9.8z"/><path class="st2" d="M334.6 169.3h9.8v9.8h-9.8z"/><circle cx="339.5" cy="174.1" r="1.9"/></g><g class="st1"><path class="st2" d="M334.6 159.5h9.8v9.8h-9.8z"/><path class="st2" d="M334.6 159.5h9.8v9.8h-9.8z"/><circle cx="339.5" cy="164.4" r="1.9"/></g><g class="st1"><path class="st2" d="M334.6 149.8h9.8v9.8h-9.8z"/><path class="st2" d="M334.6 149.8h9.8v9.8h-9.8z"/><circle cx="339.5" cy="154.6" r="1.9"/></g><g class="st1"><path class="st2" d="M334.6 140h9.8v9.8h-9.8z"/><path class="st2" d="M334.6 140h9.8v9.8h-9.8z"/><circle cx="339.5" cy="144.9" r="1.9"/></g><g class="st1"><path class="st2" d="M334.6 130.3h9.8v9.8h-9.8z"/><path class="st2" d="M334.6 130.3h9.8v9.8h-9.8z"/><circle cx="339.5" cy="135.1" r="1.9"/></g><g class="st1"><path class="st2" d="M334.6 120.5h9.8v9.8h-9.8z"/><path class="st2" d="M334.6 120.5h9.8v9.8h-9.8z"/><circle cx="339.5" cy="125.4" r="1.9"/></g><g class="st1"><path class="st2" d="M334.6 110.8h9.8v9.8h-9.8z"/><path class="st2" d="M334.6 110.8h9.8v9.8h-9.8z"/><circle cx="339.5" cy="115.6" r="1.9"/></g><g class="st1"><path class="st2" d="M334.6 101h9.8v9.8h-9.8z"/><path class="st2" d="M334.6 101h9.8v9.8h-9.8z"/><circle cx="339.5" cy="105.9" r="1.9"/></g><g class="st1"><path class="st2" d="M334.6 91.3h9.8v9.8h-9.8z"/><path class="st2" d="M334.6 91.3h9.8v9.8h-9.8z"/><circle cx="339.5" cy="96.1" r="1.9"/></g><g class="st1"><path class="st2" d="M334.6 81.5h9.8v9.8h-9.8z"/><path class="st2" d="M334.6 81.5h9.8v9.8h-9.8z"/><circle cx="339.5" cy="86.4" r="1.9"/></g><g class="st1"><path class="st2" d="M334.6 71.8h9.8v9.8h-9.8z"/><path class="st2" d="M334.6 71.8h9.8v9.8h-9.8z"/><circle cx="339.5" cy="76.6" r="1.9"/></g><g class="st1"><path class="st2" d="M334.6 62h9.8v9.8h-9.8z"/><path class="st2" d="M334.6 62h9.8v9.8h-9.8z"/><circle cx="339.5" cy="66.9" r="1.9"/></g><g class="st1"><path class="st2" d="M334.6 52.3h9.8v9.8h-9.8z"/><path class="st2" d="M334.6 52.3h9.8v9.8h-9.8z"/><circle cx="339.5" cy="57.1" r="1.9"/></g><g class="st1"><path class="st2" d="M334.6 42.5h9.8v9.8h-9.8z"/><path class="st2" d="M334.6 42.5h9.8v9.8h-9.8z"/><circle cx="339.5" cy="47.4" r="1.9"/></g><g class="st1"><path class="st2" d="M334.6 32.8h9.8v9.8h-9.8z"/><path class="st2" d="M334.6 32.8h9.8v9.8h-9.8z"/><circle cx="339.5" cy="37.6" r="1.9"/></g><g class="st1"><path class="st2" d="M334.6 23h9.8v9.8h-9.8z"/><path class="st2" d="M334.6 23h9.8v9.8h-9.8z"/><circle cx="339.5" cy="27.9" r="1.9"/></g><g class="st1"><path class="st2" d="M334.6 13.3h9.8v9.8h-9.8z"/><path class="st2" d="M334.6 13.3h9.8v9.8h-9.8z"/><circle cx="339.5" cy="18.1" r="1.9"/></g><g class="st1"><path class="st2" d="M334.6 3.5h9.8v9.8h-9.8z"/><path class="st2" d="M334.6 3.5h9.8v9.8h-9.8z"/><circle cx="339.5" cy="8.4" r="1.9"/></g><g class="st1"><path class="st2" d="M324.8 179h9.8v9.8h-9.8z"/><path class="st2" d="M324.8 179h9.8v9.8h-9.8z"/><circle cx="329.7" cy="183.9" r="1.9"/></g><g class="st1"><path class="st2" d="M324.8 169.3h9.8v9.8h-9.8z"/><path class="st2" d="M324.8 169.3h9.8v9.8h-9.8z"/><circle cx="329.7" cy="174.1" r="1.9"/></g><g class="st1"><path class="st2" d="M324.8 159.5h9.8v9.8h-9.8z"/><path class="st2" d="M324.8 159.5h9.8v9.8h-9.8z"/><circle cx="329.7" cy="164.4" r="1.9"/></g><g class="st1"><path class="st2" d="M324.8 149.8h9.8v9.8h-9.8z"/><path class="st2" d="M324.8 149.8h9.8v9.8h-9.8z"/><circle cx="329.7" cy="154.6" r="1.9"/></g><g class="st1"><path class="st2" d="M324.8 140h9.8v9.8h-9.8z"/><path class="st2" d="M324.8 140h9.8v9.8h-9.8z"/><circle cx="329.7" cy="144.9" r="1.9"/></g><g class="st1"><path class="st2" d="M324.8 130.3h9.8v9.8h-9.8z"/><path class="st2" d="M324.8 130.3h9.8v9.8h-9.8z"/><circle cx="329.7" cy="135.1" r="1.9"/></g><g class="st1"><path class="st2" d="M324.8 120.5h9.8v9.8h-9.8z"/><path class="st2" d="M324.8 120.5h9.8v9.8h-9.8z"/><circle cx="329.7" cy="125.4" r="1.9"/></g><g class="st1"><path class="st2" d="M324.8 110.8h9.8v9.8h-9.8z"/><path class="st2" d="M324.8 110.8h9.8v9.8h-9.8z"/><circle cx="329.7" cy="115.6" r="1.9"/></g><g class="st1"><path class="st2" d="M324.8 101h9.8v9.8h-9.8z"/><path class="st2" d="M324.8 101h9.8v9.8h-9.8z"/><circle cx="329.7" cy="105.9" r="1.9"/></g><g class="st1"><path class="st2" d="M324.8 91.3h9.8v9.8h-9.8z"/><path class="st2" d="M324.8 91.3h9.8v9.8h-9.8z"/><circle cx="329.7" cy="96.1" r="1.9"/></g><g class="st1"><path class="st2" d="M324.8 81.5h9.8v9.8h-9.8z"/><path class="st2" d="M324.8 81.5h9.8v9.8h-9.8z"/><circle cx="329.7" cy="86.4" r="1.9"/></g><g class="st1"><path class="st2" d="M324.8 71.8h9.8v9.8h-9.8z"/><path class="st2" d="M324.8 71.8h9.8v9.8h-9.8z"/><circle cx="329.7" cy="76.6" r="1.9"/></g><g class="st1"><path class="st2" d="M324.8 62h9.8v9.8h-9.8z"/><path class="st2" d="M324.8 62h9.8v9.8h-9.8z"/><circle cx="329.7" cy="66.9" r="1.9"/></g><g class="st1"><path class="st2" d="M324.8 52.3h9.8v9.8h-9.8z"/><path class="st2" d="M324.8 52.3h9.8v9.8h-9.8z"/><circle cx="329.7" cy="57.1" r="1.9"/></g><g class="st1"><path class="st2" d="M324.8 42.5h9.8v9.8h-9.8z"/><path class="st2" d="M324.8 42.5h9.8v9.8h-9.8z"/><circle cx="329.7" cy="47.4" r="1.9"/></g><g class="st1"><path class="st2" d="M324.8 32.8h9.8v9.8h-9.8z"/><path class="st2" d="M324.8 32.8h9.8v9.8h-9.8z"/><circle cx="329.7" cy="37.6" r="1.9"/></g><g class="st1"><path class="st2" d="M324.8 23h9.8v9.8h-9.8z"/><path class="st2" d="M324.8 23h9.8v9.8h-9.8z"/><circle cx="329.7" cy="27.9" r="1.9"/></g><g class="st1"><path class="st2" d="M324.8 13.3h9.8v9.8h-9.8z"/><path class="st2" d="M324.8 13.3h9.8v9.8h-9.8z"/><circle cx="329.7" cy="18.1" r="1.9"/></g><g class="st1"><path class="st2" d="M324.8 3.5h9.8v9.8h-9.8z"/><path class="st2" d="M324.8 3.5h9.8v9.8h-9.8z"/><circle cx="329.7" cy="8.4" r="1.9"/></g><g class="st1"><path class="st2" d="M315.1 179h9.8v9.8h-9.8z"/><path class="st2" d="M315.1 179h9.8v9.8h-9.8z"/><circle cx="320" cy="183.9" r="1.9"/></g><g class="st1"><path class="st2" d="M315.1 169.3h9.8v9.8h-9.8z"/><path class="st2" d="M315.1 169.3h9.8v9.8h-9.8z"/><circle cx="320" cy="174.1" r="1.9"/></g><g class="st1"><path class="st2" d="M315.1 159.5h9.8v9.8h-9.8z"/><path class="st2" d="M315.1 159.5h9.8v9.8h-9.8z"/><circle cx="320" cy="164.4" r="1.9"/></g><g class="st1"><path class="st2" d="M315.1 149.8h9.8v9.8h-9.8z"/><path class="st2" d="M315.1 149.8h9.8v9.8h-9.8z"/><circle cx="320" cy="154.6" r="1.9"/></g><g class="st1"><path class="st2" d="M315.1 140h9.8v9.8h-9.8z"/><path class="st2" d="M315.1 140h9.8v9.8h-9.8z"/><circle cx="320" cy="144.9" r="1.9"/></g><g class="st1"><path class="st2" d="M315.1 130.3h9.8v9.8h-9.8z"/><path class="st2" d="M315.1 130.3h9.8v9.8h-9.8z"/><circle cx="320" cy="135.1" r="1.9"/></g><g class="st1"><path class="st2" d="M315.1 120.5h9.8v9.8h-9.8z"/><path class="st2" d="M315.1 120.5h9.8v9.8h-9.8z"/><circle cx="320" cy="125.4" r="1.9"/></g><g class="st1"><path class="st2" d="M315.1 110.8h9.8v9.8h-9.8z"/><path class="st2" d="M315.1 110.8h9.8v9.8h-9.8z"/><circle cx="320" cy="115.6" r="1.9"/></g><g class="st1"><path class="st2" d="M315.1 101h9.8v9.8h-9.8z"/><path class="st2" d="M315.1 101h9.8v9.8h-9.8z"/><circle cx="320" cy="105.9" r="1.9"/></g><g class="st1"><path class="st2" d="M315.1 91.3h9.8v9.8h-9.8z"/><path class="st2" d="M315.1 91.3h9.8v9.8h-9.8z"/><circle cx="320" cy="96.1" r="1.9"/></g><g class="st1"><path class="st2" d="M315.1 81.5h9.8v9.8h-9.8z"/><path class="st2" d="M315.1 81.5h9.8v9.8h-9.8z"/><circle cx="320" cy="86.4" r="1.9"/></g><g class="st1"><path class="st2" d="M315.1 71.8h9.8v9.8h-9.8z"/><path class="st2" d="M315.1 71.8h9.8v9.8h-9.8z"/><circle cx="320" cy="76.6" r="1.9"/></g><g class="st1"><path class="st2" d="M315.1 62h9.8v9.8h-9.8z"/><path class="st2" d="M315.1 62h9.8v9.8h-9.8z"/><circle cx="320" cy="66.9" r="1.9"/></g><g class="st1"><path class="st2" d="M315.1 52.3h9.8v9.8h-9.8z"/><path class="st2" d="M315.1 52.3h9.8v9.8h-9.8z"/><circle cx="320" cy="57.1" r="1.9"/></g><g class="st1"><path class="st2" d="M315.1 42.5h9.8v9.8h-9.8z"/><path class="st2" d="M315.1 42.5h9.8v9.8h-9.8z"/><circle cx="320" cy="47.4" r="1.9"/></g><g class="st1"><path class="st2" d="M315.1 32.8h9.8v9.8h-9.8z"/><path class="st2" d="M315.1 32.8h9.8v9.8h-9.8z"/><circle cx="320" cy="37.6" r="1.9"/></g><g class="st1"><path class="st2" d="M315.1 23h9.8v9.8h-9.8z"/><path class="st2" d="M315.1 23h9.8v9.8h-9.8z"/><circle cx="320" cy="27.9" r="1.9"/></g><g class="st1"><path class="st2" d="M315.1 13.3h9.8v9.8h-9.8z"/><path class="st2" d="M315.1 13.3h9.8v9.8h-9.8z"/><circle cx="320" cy="18.1" r="1.9"/></g><g class="st1"><path class="st2" d="M315.1 3.5h9.8v9.8h-9.8z"/><path class="st2" d="M315.1 3.5h9.8v9.8h-9.8z"/><circle cx="320" cy="8.4" r="1.9"/></g><g class="st1"><path class="st2" d="M305.3 179h9.8v9.8h-9.8z"/><path class="st2" d="M305.3 179h9.8v9.8h-9.8z"/><circle cx="310.2" cy="183.9" r="1.9"/></g><g class="st1"><path class="st2" d="M305.3 169.3h9.8v9.8h-9.8z"/><path class="st2" d="M305.3 169.3h9.8v9.8h-9.8z"/><circle cx="310.2" cy="174.1" r="1.9"/></g><g class="st1"><path class="st2" d="M305.3 159.5h9.8v9.8h-9.8z"/><path class="st2" d="M305.3 159.5h9.8v9.8h-9.8z"/><circle cx="310.2" cy="164.4" r="1.9"/></g><g class="st1"><path class="st2" d="M305.3 149.8h9.8v9.8h-9.8z"/><path class="st2" d="M305.3 149.8h9.8v9.8h-9.8z"/><circle cx="310.2" cy="154.6" r="1.9"/></g><g class="st1"><path class="st2" d="M305.3 140h9.8v9.8h-9.8z"/><path class="st2" d="M305.3 140h9.8v9.8h-9.8z"/><circle cx="310.2" cy="144.9" r="1.9"/></g><g class="st1"><path class="st2" d="M305.3 130.3h9.8v9.8h-9.8z"/><path class="st2" d="M305.3 130.3h9.8v9.8h-9.8z"/><circle cx="310.2" cy="135.1" r="1.9"/></g><g class="st1"><path class="st2" d="M305.3 120.5h9.8v9.8h-9.8z"/><path class="st2" d="M305.3 120.5h9.8v9.8h-9.8z"/><circle cx="310.2" cy="125.4" r="1.9"/></g><g class="st1"><path class="st2" d="M305.3 110.8h9.8v9.8h-9.8z"/><path class="st2" d="M305.3 110.8h9.8v9.8h-9.8z"/><circle cx="310.2" cy="115.6" r="1.9"/></g><g class="st1"><path class="st2" d="M305.3 101h9.8v9.8h-9.8z"/><path class="st2" d="M305.3 101h9.8v9.8h-9.8z"/><circle cx="310.2" cy="105.9" r="1.9"/></g><g class="st1"><path class="st2" d="M305.3 91.3h9.8v9.8h-9.8z"/><path class="st2" d="M305.3 91.3h9.8v9.8h-9.8z"/><circle cx="310.2" cy="96.1" r="1.9"/></g><g class="st1"><path class="st2" d="M305.3 81.5h9.8v9.8h-9.8z"/><path class="st2" d="M305.3 81.5h9.8v9.8h-9.8z"/><circle cx="310.2" cy="86.4" r="1.9"/></g><g class="st1"><path class="st2" d="M305.3 71.8h9.8v9.8h-9.8z"/><path class="st2" d="M305.3 71.8h9.8v9.8h-9.8z"/><circle cx="310.2" cy="76.6" r="1.9"/></g><g class="st1"><path class="st2" d="M305.3 62h9.8v9.8h-9.8z"/><path class="st2" d="M305.3 62h9.8v9.8h-9.8z"/><circle cx="310.2" cy="66.9" r="1.9"/></g><g class="st1"><path class="st2" d="M305.3 52.3h9.8v9.8h-9.8z"/><path class="st2" d="M305.3 52.3h9.8v9.8h-9.8z"/><circle cx="310.2" cy="57.1" r="1.9"/></g><g class="st1"><path class="st2" d="M305.3 42.5h9.8v9.8h-9.8z"/><path class="st2" d="M305.3 42.5h9.8v9.8h-9.8z"/><circle cx="310.2" cy="47.4" r="1.9"/></g><g class="st1"><path class="st2" d="M305.3 32.8h9.8v9.8h-9.8z"/><path class="st2" d="M305.3 32.8h9.8v9.8h-9.8z"/><circle cx="310.2" cy="37.6" r="1.9"/></g><g class="st1"><path class="st2" d="M305.3 23h9.8v9.8h-9.8z"/><path class="st2" d="M305.3 23h9.8v9.8h-9.8z"/><circle cx="310.2" cy="27.9" r="1.9"/></g><g class="st1"><path class="st2" d="M305.3 13.3h9.8v9.8h-9.8z"/><path class="st2" d="M305.3 13.3h9.8v9.8h-9.8z"/><circle cx="310.2" cy="18.1" r="1.9"/></g><g class="st1"><path class="st2" d="M305.3 3.5h9.8v9.8h-9.8z"/><path class="st2" d="M305.3 3.5h9.8v9.8h-9.8z"/><circle cx="310.2" cy="8.4" r="1.9"/></g><g class="st1"><path class="st2" d="M295.6 179h9.8v9.8h-9.8z"/><path class="st2" d="M295.6 179h9.8v9.8h-9.8z"/><circle cx="300.5" cy="183.9" r="1.9"/></g><g class="st1"><path class="st2" d="M295.6 169.3h9.8v9.8h-9.8z"/><path class="st2" d="M295.6 169.3h9.8v9.8h-9.8z"/><circle cx="300.5" cy="174.1" r="1.9"/></g><g class="st1"><path class="st2" d="M295.6 159.5h9.8v9.8h-9.8z"/><path class="st2" d="M295.6 159.5h9.8v9.8h-9.8z"/><circle cx="300.5" cy="164.4" r="1.9"/></g><g class="st1"><path class="st2" d="M295.6 149.8h9.8v9.8h-9.8z"/><path class="st2" d="M295.6 149.8h9.8v9.8h-9.8z"/><circle cx="300.5" cy="154.6" r="1.9"/></g><g class="st1"><path class="st2" d="M295.6 140h9.8v9.8h-9.8z"/><path class="st2" d="M295.6 140h9.8v9.8h-9.8z"/><circle cx="300.5" cy="144.9" r="1.9"/></g><g class="st1"><path class="st2" d="M295.6 130.3h9.8v9.8h-9.8z"/><path class="st2" d="M295.6 130.3h9.8v9.8h-9.8z"/><circle cx="300.5" cy="135.1" r="1.9"/></g><g class="st1"><path class="st2" d="M295.6 120.5h9.8v9.8h-9.8z"/><path class="st2" d="M295.6 120.5h9.8v9.8h-9.8z"/><circle cx="300.5" cy="125.4" r="1.9"/></g><g class="st1"><path class="st2" d="M295.6 110.8h9.8v9.8h-9.8z"/><path class="st2" d="M295.6 110.8h9.8v9.8h-9.8z"/><circle cx="300.5" cy="115.6" r="1.9"/></g><g class="st1"><path class="st2" d="M295.6 101h9.8v9.8h-9.8z"/><path class="st2" d="M295.6 101h9.8v9.8h-9.8z"/><circle cx="300.5" cy="105.9" r="1.9"/></g><g class="st1"><path class="st2" d="M295.6 91.3h9.8v9.8h-9.8z"/><path class="st2" d="M295.6 91.3h9.8v9.8h-9.8z"/><circle cx="300.5" cy="96.1" r="1.9"/></g><g class="st1"><path class="st2" d="M295.6 81.5h9.8v9.8h-9.8z"/><path class="st2" d="M295.6 81.5h9.8v9.8h-9.8z"/><circle cx="300.5" cy="86.4" r="1.9"/></g><g class="st1"><path class="st2" d="M295.6 71.8h9.8v9.8h-9.8z"/><path class="st2" d="M295.6 71.8h9.8v9.8h-9.8z"/><circle cx="300.5" cy="76.6" r="1.9"/></g><g class="st1"><path class="st2" d="M295.6 62h9.8v9.8h-9.8z"/><path class="st2" d="M295.6 62h9.8v9.8h-9.8z"/><circle cx="300.5" cy="66.9" r="1.9"/></g><g class="st1"><path class="st2" d="M295.6 52.3h9.8v9.8h-9.8z"/><path class="st2" d="M295.6 52.3h9.8v9.8h-9.8z"/><circle cx="300.5" cy="57.1" r="1.9"/></g><g class="st1"><path class="st2" d="M295.6 42.5h9.8v9.8h-9.8z"/><path class="st2" d="M295.6 42.5h9.8v9.8h-9.8z"/><circle cx="300.5" cy="47.4" r="1.9"/></g><g class="st1"><path class="st2" d="M295.6 32.8h9.8v9.8h-9.8z"/><path class="st2" d="M295.6 32.8h9.8v9.8h-9.8z"/><circle cx="300.5" cy="37.6" r="1.9"/></g><g class="st1"><path class="st2" d="M295.6 23h9.8v9.8h-9.8z"/><path class="st2" d="M295.6 23h9.8v9.8h-9.8z"/><circle cx="300.5" cy="27.9" r="1.9"/></g><g class="st1"><path class="st2" d="M295.6 13.3h9.8v9.8h-9.8z"/><path class="st2" d="M295.6 13.3h9.8v9.8h-9.8z"/><circle cx="300.5" cy="18.1" r="1.9"/></g><g class="st1"><path class="st2" d="M295.6 3.5h9.8v9.8h-9.8z"/><path class="st2" d="M295.6 3.5h9.8v9.8h-9.8z"/><circle cx="300.5" cy="8.4" r="1.9"/></g><g class="st1"><path class="st2" d="M285.8 179h9.8v9.8h-9.8z"/><path class="st2" d="M285.8 179h9.8v9.8h-9.8z"/><circle cx="290.7" cy="183.9" r="1.9"/></g><g class="st1"><path class="st2" d="M285.8 169.3h9.8v9.8h-9.8z"/><path class="st2" d="M285.8 169.3h9.8v9.8h-9.8z"/><circle cx="290.7" cy="174.1" r="1.9"/></g><g class="st1"><path class="st2" d="M285.8 159.5h9.8v9.8h-9.8z"/><path class="st2" d="M285.8 159.5h9.8v9.8h-9.8z"/><circle cx="290.7" cy="164.4" r="1.9"/></g><g class="st1"><path class="st2" d="M285.8 149.8h9.8v9.8h-9.8z"/><path class="st2" d="M285.8 149.8h9.8v9.8h-9.8z"/><circle cx="290.7" cy="154.6" r="1.9"/></g><g class="st1"><path class="st2" d="M285.8 140h9.8v9.8h-9.8z"/><path class="st2" d="M285.8 140h9.8v9.8h-9.8z"/><circle cx="290.7" cy="144.9" r="1.9"/></g><g class="st1"><path class="st2" d="M285.8 130.3h9.8v9.8h-9.8z"/><path class="st2" d="M285.8 130.3h9.8v9.8h-9.8z"/><circle cx="290.7" cy="135.1" r="1.9"/></g><g class="st1"><path class="st2" d="M285.8 120.5h9.8v9.8h-9.8z"/><path class="st2" d="M285.8 120.5h9.8v9.8h-9.8z"/><circle cx="290.7" cy="125.4" r="1.9"/></g><g class="st1"><path class="st2" d="M285.8 110.8h9.8v9.8h-9.8z"/><path class="st2" d="M285.8 110.8h9.8v9.8h-9.8z"/><circle cx="290.7" cy="115.6" r="1.9"/></g><g class="st1"><path class="st2" d="M285.8 101h9.8v9.8h-9.8z"/><path class="st2" d="M285.8 101h9.8v9.8h-9.8z"/><circle cx="290.7" cy="105.9" r="1.9"/></g><g class="st1"><path class="st2" d="M285.8 91.3h9.8v9.8h-9.8z"/><path class="st2" d="M285.8 91.3h9.8v9.8h-9.8z"/><circle cx="290.7" cy="96.1" r="1.9"/></g><g class="st1"><path class="st2" d="M285.8 81.5h9.8v9.8h-9.8z"/><path class="st2" d="M285.8 81.5h9.8v9.8h-9.8z"/><circle cx="290.7" cy="86.4" r="1.9"/></g><g class="st1"><path class="st2" d="M285.8 71.8h9.8v9.8h-9.8z"/><path class="st2" d="M285.8 71.8h9.8v9.8h-9.8z"/><circle cx="290.7" cy="76.6" r="1.9"/></g><g class="st1"><path class="st2" d="M285.8 62h9.8v9.8h-9.8z"/><path class="st2" d="M285.8 62h9.8v9.8h-9.8z"/><circle cx="290.7" cy="66.9" r="1.9"/></g><g class="st1"><path class="st2" d="M285.8 52.3h9.8v9.8h-9.8z"/><path class="st2" d="M285.8 52.3h9.8v9.8h-9.8z"/><circle cx="290.7" cy="57.1" r="1.9"/></g><g class="st1"><path class="st2" d="M285.8 42.5h9.8v9.8h-9.8z"/><path class="st2" d="M285.8 42.5h9.8v9.8h-9.8z"/><circle cx="290.7" cy="47.4" r="1.9"/></g><g class="st1"><path class="st2" d="M285.8 32.8h9.8v9.8h-9.8z"/><path class="st2" d="M285.8 32.8h9.8v9.8h-9.8z"/><circle cx="290.7" cy="37.6" r="1.9"/></g><g class="st1"><path class="st2" d="M285.8 23h9.8v9.8h-9.8z"/><path class="st2" d="M285.8 23h9.8v9.8h-9.8z"/><circle cx="290.7" cy="27.9" r="1.9"/></g><g class="st1"><path class="st2" d="M285.8 13.3h9.8v9.8h-9.8z"/><path class="st2" d="M285.8 13.3h9.8v9.8h-9.8z"/><circle cx="290.7" cy="18.1" r="1.9"/></g><g class="st1"><path class="st2" d="M285.8 3.5h9.8v9.8h-9.8z"/><path class="st2" d="M285.8 3.5h9.8v9.8h-9.8z"/><circle cx="290.7" cy="8.4" r="1.9"/></g><g class="st1"><path class="st2" d="M276.1 179h9.8v9.8h-9.8z"/><path class="st2" d="M276.1 179h9.8v9.8h-9.8z"/><circle cx="281" cy="183.9" r="1.9"/></g><g class="st1"><path class="st2" d="M276.1 169.3h9.8v9.8h-9.8z"/><path class="st2" d="M276.1 169.3h9.8v9.8h-9.8z"/><circle cx="281" cy="174.1" r="1.9"/></g><g class="st1"><path class="st2" d="M276.1 159.5h9.8v9.8h-9.8z"/><path class="st2" d="M276.1 159.5h9.8v9.8h-9.8z"/><circle cx="281" cy="164.4" r="1.9"/></g><g class="st1"><path class="st2" d="M276.1 149.8h9.8v9.8h-9.8z"/><path class="st2" d="M276.1 149.8h9.8v9.8h-9.8z"/><circle cx="281" cy="154.6" r="1.9"/></g><g class="st1"><path class="st2" d="M276.1 140h9.8v9.8h-9.8z"/><path class="st2" d="M276.1 140h9.8v9.8h-9.8z"/><circle cx="281" cy="144.9" r="1.9"/></g><g class="st1"><path class="st2" d="M276.1 130.3h9.8v9.8h-9.8z"/><path class="st2" d="M276.1 130.3h9.8v9.8h-9.8z"/><circle cx="281" cy="135.1" r="1.9"/></g><g class="st1"><path class="st2" d="M276.1 120.5h9.8v9.8h-9.8z"/><path class="st2" d="M276.1 120.5h9.8v9.8h-9.8z"/><circle cx="281" cy="125.4" r="1.9"/></g><g class="st1"><path class="st2" d="M276.1 110.8h9.8v9.8h-9.8z"/><path class="st2" d="M276.1 110.8h9.8v9.8h-9.8z"/><circle cx="281" cy="115.6" r="1.9"/></g><g class="st1"><path class="st2" d="M276.1 101h9.8v9.8h-9.8z"/><path class="st2" d="M276.1 101h9.8v9.8h-9.8z"/><circle cx="281" cy="105.9" r="1.9"/></g><g class="st1"><path class="st2" d="M276.1 91.3h9.8v9.8h-9.8z"/><path class="st2" d="M276.1 91.3h9.8v9.8h-9.8z"/><circle cx="281" cy="96.1" r="1.9"/></g><g class="st1"><path class="st2" d="M276.1 81.5h9.8v9.8h-9.8z"/><path class="st2" d="M276.1 81.5h9.8v9.8h-9.8z"/><circle cx="281" cy="86.4" r="1.9"/></g><g class="st1"><path class="st2" d="M276.1 71.8h9.8v9.8h-9.8z"/><path class="st2" d="M276.1 71.8h9.8v9.8h-9.8z"/><circle cx="281" cy="76.6" r="1.9"/></g><g class="st1"><path class="st2" d="M276.1 62h9.8v9.8h-9.8z"/><path class="st2" d="M276.1 62h9.8v9.8h-9.8z"/><circle cx="281" cy="66.9" r="1.9"/></g><g class="st1"><path class="st2" d="M276.1 52.3h9.8v9.8h-9.8z"/><path class="st2" d="M276.1 52.3h9.8v9.8h-9.8z"/><circle cx="281" cy="57.1" r="1.9"/></g><g class="st1"><path class="st2" d="M276.1 42.5h9.8v9.8h-9.8z"/><path class="st2" d="M276.1 42.5h9.8v9.8h-9.8z"/><circle cx="281" cy="47.4" r="1.9"/></g><g class="st1"><path class="st2" d="M276.1 32.8h9.8v9.8h-9.8z"/><path class="st2" d="M276.1 32.8h9.8v9.8h-9.8z"/><circle cx="281" cy="37.6" r="1.9"/></g><g class="st1"><path class="st2" d="M276.1 23h9.8v9.8h-9.8z"/><path class="st2" d="M276.1 23h9.8v9.8h-9.8z"/><circle cx="281" cy="27.9" r="1.9"/></g><g class="st1"><path class="st2" d="M276.1 13.3h9.8v9.8h-9.8z"/><path class="st2" d="M276.1 13.3h9.8v9.8h-9.8z"/><circle cx="281" cy="18.1" r="1.9"/></g><g class="st1"><path class="st2" d="M276.1 3.5h9.8v9.8h-9.8z"/><path class="st2" d="M276.1 3.5h9.8v9.8h-9.8z"/><circle cx="281" cy="8.4" r="1.9"/></g><g class="st1"><path class="st2" d="M266.3 179h9.8v9.8h-9.8z"/><path class="st2" d="M266.3 179h9.8v9.8h-9.8z"/><circle cx="271.2" cy="183.9" r="1.9"/></g><g class="st1"><path class="st2" d="M266.3 169.3h9.8v9.8h-9.8z"/><path class="st2" d="M266.3 169.3h9.8v9.8h-9.8z"/><circle cx="271.2" cy="174.1" r="1.9"/></g><g class="st1"><path class="st2" d="M266.3 159.5h9.8v9.8h-9.8z"/><path class="st2" d="M266.3 159.5h9.8v9.8h-9.8z"/><circle cx="271.2" cy="164.4" r="1.9"/></g><g class="st1"><path class="st2" d="M266.3 149.8h9.8v9.8h-9.8z"/><path class="st2" d="M266.3 149.8h9.8v9.8h-9.8z"/><circle cx="271.2" cy="154.6" r="1.9"/></g><g class="st1"><path class="st2" d="M266.3 140h9.8v9.8h-9.8z"/><path class="st2" d="M266.3 140h9.8v9.8h-9.8z"/><circle cx="271.2" cy="144.9" r="1.9"/></g><g class="st1"><path class="st2" d="M266.3 130.3h9.8v9.8h-9.8z"/><path class="st2" d="M266.3 130.3h9.8v9.8h-9.8z"/><circle cx="271.2" cy="135.1" r="1.9"/></g><g class="st1"><path class="st2" d="M266.3 120.5h9.8v9.8h-9.8z"/><path class="st2" d="M266.3 120.5h9.8v9.8h-9.8z"/><circle cx="271.2" cy="125.4" r="1.9"/></g><g class="st1"><path class="st2" d="M266.3 110.8h9.8v9.8h-9.8z"/><path class="st2" d="M266.3 110.8h9.8v9.8h-9.8z"/><circle cx="271.2" cy="115.6" r="1.9"/></g><g class="st1"><path class="st2" d="M266.3 101h9.8v9.8h-9.8z"/><path class="st2" d="M266.3 101h9.8v9.8h-9.8z"/><circle cx="271.2" cy="105.9" r="1.9"/></g><g class="st1"><path class="st2" d="M266.3 91.3h9.8v9.8h-9.8z"/><path class="st2" d="M266.3 91.3h9.8v9.8h-9.8z"/><circle cx="271.2" cy="96.1" r="1.9"/></g><g class="st1"><path class="st2" d="M266.3 81.5h9.8v9.8h-9.8z"/><path class="st2" d="M266.3 81.5h9.8v9.8h-9.8z"/><circle cx="271.2" cy="86.4" r="1.9"/></g><g class="st1"><path class="st2" d="M266.3 71.8h9.8v9.8h-9.8z"/><path class="st2" d="M266.3 71.8h9.8v9.8h-9.8z"/><circle cx="271.2" cy="76.6" r="1.9"/></g><g class="st1"><path class="st2" d="M266.3 62h9.8v9.8h-9.8z"/><path class="st2" d="M266.3 62h9.8v9.8h-9.8z"/><circle cx="271.2" cy="66.9" r="1.9"/></g><g class="st1"><path class="st2" d="M266.3 52.3h9.8v9.8h-9.8z"/><path class="st2" d="M266.3 52.3h9.8v9.8h-9.8z"/><circle cx="271.2" cy="57.1" r="1.9"/></g><g class="st1"><path class="st2" d="M266.3 42.5h9.8v9.8h-9.8z"/><path class="st2" d="M266.3 42.5h9.8v9.8h-9.8z"/><circle cx="271.2" cy="47.4" r="1.9"/></g><g class="st1"><path class="st2" d="M266.3 32.8h9.8v9.8h-9.8z"/><path class="st2" d="M266.3 32.8h9.8v9.8h-9.8z"/><circle cx="271.2" cy="37.6" r="1.9"/></g><g class="st1"><path class="st2" d="M266.3 23h9.8v9.8h-9.8z"/><path class="st2" d="M266.3 23h9.8v9.8h-9.8z"/><circle cx="271.2" cy="27.9" r="1.9"/></g><g class="st1"><path class="st2" d="M266.3 13.3h9.8v9.8h-9.8z"/><path class="st2" d="M266.3 13.3h9.8v9.8h-9.8z"/><circle cx="271.2" cy="18.1" r="1.9"/></g><g class="st1"><path class="st2" d="M266.3 3.5h9.8v9.8h-9.8z"/><path class="st2" d="M266.3 3.5h9.8v9.8h-9.8z"/><circle cx="271.2" cy="8.4" r="1.9"/></g><g class="st1"><path class="st2" d="M256.6 179h9.8v9.8h-9.8z"/><path class="st2" d="M256.6 179h9.8v9.8h-9.8z"/><circle cx="261.5" cy="183.9" r="1.9"/></g><g class="st1"><path class="st2" d="M256.6 169.3h9.8v9.8h-9.8z"/><path class="st2" d="M256.6 169.3h9.8v9.8h-9.8z"/><circle cx="261.5" cy="174.1" r="1.9"/></g><g class="st1"><path class="st2" d="M256.6 159.5h9.8v9.8h-9.8z"/><path class="st2" d="M256.6 159.5h9.8v9.8h-9.8z"/><circle cx="261.5" cy="164.4" r="1.9"/></g><g class="st1"><path class="st2" d="M256.6 149.8h9.8v9.8h-9.8z"/><path class="st2" d="M256.6 149.8h9.8v9.8h-9.8z"/><circle cx="261.5" cy="154.6" r="1.9"/></g><g class="st1"><path class="st2" d="M256.6 140h9.8v9.8h-9.8z"/><path class="st2" d="M256.6 140h9.8v9.8h-9.8z"/><circle cx="261.5" cy="144.9" r="1.9"/></g><g class="st1"><path class="st2" d="M256.6 130.3h9.8v9.8h-9.8z"/><path class="st2" d="M256.6 130.3h9.8v9.8h-9.8z"/><circle cx="261.5" cy="135.1" r="1.9"/></g><g class="st1"><path class="st2" d="M256.6 120.5h9.8v9.8h-9.8z"/><path class="st2" d="M256.6 120.5h9.8v9.8h-9.8z"/><circle cx="261.5" cy="125.4" r="1.9"/></g><g class="st1"><path class="st2" d="M256.6 110.8h9.8v9.8h-9.8z"/><path class="st2" d="M256.6 110.8h9.8v9.8h-9.8z"/><circle cx="261.5" cy="115.6" r="1.9"/></g><g class="st1"><path class="st2" d="M256.6 101h9.8v9.8h-9.8z"/><path class="st2" d="M256.6 101h9.8v9.8h-9.8z"/><circle cx="261.5" cy="105.9" r="1.9"/></g><g class="st1"><path class="st2" d="M256.6 91.3h9.8v9.8h-9.8z"/><path class="st2" d="M256.6 91.3h9.8v9.8h-9.8z"/><circle cx="261.5" cy="96.1" r="1.9"/></g><g class="st1"><path class="st2" d="M256.6 81.5h9.8v9.8h-9.8z"/><path class="st2" d="M256.6 81.5h9.8v9.8h-9.8z"/><circle cx="261.5" cy="86.4" r="1.9"/></g><g class="st1"><path class="st2" d="M256.6 71.8h9.8v9.8h-9.8z"/><path class="st2" d="M256.6 71.8h9.8v9.8h-9.8z"/><circle cx="261.5" cy="76.6" r="1.9"/></g><g class="st1"><path class="st2" d="M256.6 62h9.8v9.8h-9.8z"/><path class="st2" d="M256.6 62h9.8v9.8h-9.8z"/><circle cx="261.5" cy="66.9" r="1.9"/></g><g class="st1"><path class="st2" d="M256.6 52.3h9.8v9.8h-9.8z"/><path class="st2" d="M256.6 52.3h9.8v9.8h-9.8z"/><circle cx="261.5" cy="57.1" r="1.9"/></g><g class="st1"><path class="st2" d="M256.6 42.5h9.8v9.8h-9.8z"/><path class="st2" d="M256.6 42.5h9.8v9.8h-9.8z"/><circle cx="261.5" cy="47.4" r="1.9"/></g><g class="st1"><path class="st2" d="M256.6 32.8h9.8v9.8h-9.8z"/><path class="st2" d="M256.6 32.8h9.8v9.8h-9.8z"/><circle cx="261.5" cy="37.6" r="1.9"/></g><g class="st1"><path class="st2" d="M256.6 23h9.8v9.8h-9.8z"/><path class="st2" d="M256.6 23h9.8v9.8h-9.8z"/><circle cx="261.5" cy="27.9" r="1.9"/></g><g class="st1"><path class="st2" d="M256.6 13.3h9.8v9.8h-9.8z"/><path class="st2" d="M256.6 13.3h9.8v9.8h-9.8z"/><circle cx="261.5" cy="18.1" r="1.9"/></g><g class="st1"><path class="st2" d="M256.6 3.5h9.8v9.8h-9.8z"/><path class="st2" d="M256.6 3.5h9.8v9.8h-9.8z"/><circle cx="261.5" cy="8.4" r="1.9"/></g><g class="st1"><path class="st2" d="M246.8 179h9.8v9.8h-9.8z"/><path class="st2" d="M246.8 179h9.8v9.8h-9.8z"/><circle cx="251.7" cy="183.9" r="1.9"/></g><g class="st1"><path class="st2" d="M246.8 169.3h9.8v9.8h-9.8z"/><path class="st2" d="M246.8 169.3h9.8v9.8h-9.8z"/><circle cx="251.7" cy="174.1" r="1.9"/></g><g class="st1"><path class="st2" d="M246.8 159.5h9.8v9.8h-9.8z"/><path class="st2" d="M246.8 159.5h9.8v9.8h-9.8z"/><circle cx="251.7" cy="164.4" r="1.9"/></g><g class="st1"><path class="st2" d="M246.8 149.8h9.8v9.8h-9.8z"/><path class="st2" d="M246.8 149.8h9.8v9.8h-9.8z"/><circle cx="251.7" cy="154.6" r="1.9"/></g><g class="st1"><path class="st2" d="M246.8 140h9.8v9.8h-9.8z"/><path class="st2" d="M246.8 140h9.8v9.8h-9.8z"/><circle cx="251.7" cy="144.9" r="1.9"/></g><g class="st1"><path class="st2" d="M246.8 130.3h9.8v9.8h-9.8z"/><path class="st2" d="M246.8 130.3h9.8v9.8h-9.8z"/><circle cx="251.7" cy="135.1" r="1.9"/></g><g class="st1"><path class="st2" d="M246.8 120.5h9.8v9.8h-9.8z"/><path class="st2" d="M246.8 120.5h9.8v9.8h-9.8z"/><circle cx="251.7" cy="125.4" r="1.9"/></g><g class="st1"><path class="st2" d="M246.8 110.8h9.8v9.8h-9.8z"/><path class="st2" d="M246.8 110.8h9.8v9.8h-9.8z"/><circle cx="251.7" cy="115.6" r="1.9"/></g><g class="st1"><path class="st2" d="M246.8 101h9.8v9.8h-9.8z"/><path class="st2" d="M246.8 101h9.8v9.8h-9.8z"/><circle cx="251.7" cy="105.9" r="1.9"/></g><g class="st1"><path class="st2" d="M246.8 91.3h9.8v9.8h-9.8z"/><path class="st2" d="M246.8 91.3h9.8v9.8h-9.8z"/><circle cx="251.7" cy="96.1" r="1.9"/></g><g class="st1"><path class="st2" d="M246.8 81.5h9.8v9.8h-9.8z"/><path class="st2" d="M246.8 81.5h9.8v9.8h-9.8z"/><circle cx="251.7" cy="86.4" r="1.9"/></g><g class="st1"><path class="st2" d="M246.8 71.8h9.8v9.8h-9.8z"/><path class="st2" d="M246.8 71.8h9.8v9.8h-9.8z"/><circle cx="251.7" cy="76.6" r="1.9"/></g><g class="st1"><path class="st2" d="M246.8 62h9.8v9.8h-9.8z"/><path class="st2" d="M246.8 62h9.8v9.8h-9.8z"/><circle cx="251.7" cy="66.9" r="1.9"/></g><g class="st1"><path class="st2" d="M246.8 52.3h9.8v9.8h-9.8z"/><path class="st2" d="M246.8 52.3h9.8v9.8h-9.8z"/><circle cx="251.7" cy="57.1" r="1.9"/></g><g class="st1"><path class="st2" d="M246.8 42.5h9.8v9.8h-9.8z"/><path class="st2" d="M246.8 42.5h9.8v9.8h-9.8z"/><circle cx="251.7" cy="47.4" r="1.9"/></g><g class="st1"><path class="st2" d="M246.8 32.8h9.8v9.8h-9.8z"/><path class="st2" d="M246.8 32.8h9.8v9.8h-9.8z"/><circle cx="251.7" cy="37.6" r="1.9"/></g><g class="st1"><path class="st2" d="M246.8 23h9.8v9.8h-9.8z"/><path class="st2" d="M246.8 23h9.8v9.8h-9.8z"/><circle cx="251.7" cy="27.9" r="1.9"/></g><g class="st1"><path class="st2" d="M246.8 13.3h9.8v9.8h-9.8z"/><path class="st2" d="M246.8 13.3h9.8v9.8h-9.8z"/><circle cx="251.7" cy="18.1" r="1.9"/></g><g class="st1"><path class="st2" d="M246.8 3.5h9.8v9.8h-9.8z"/><path class="st2" d="M246.8 3.5h9.8v9.8h-9.8z"/><circle cx="251.7" cy="8.4" r="1.9"/></g><g class="st1"><path class="st2" d="M237.1 179h9.8v9.8h-9.8z"/><path class="st2" d="M237.1 179h9.8v9.8h-9.8z"/><circle cx="242" cy="183.9" r="1.9"/></g><g class="st1"><path class="st2" d="M237.1 169.3h9.8v9.8h-9.8z"/><path class="st2" d="M237.1 169.3h9.8v9.8h-9.8z"/><circle cx="242" cy="174.1" r="1.9"/></g><g class="st1"><path class="st2" d="M237.1 159.5h9.8v9.8h-9.8z"/><path class="st2" d="M237.1 159.5h9.8v9.8h-9.8z"/><circle cx="242" cy="164.4" r="1.9"/></g><g class="st1"><path class="st2" d="M237.1 149.8h9.8v9.8h-9.8z"/><path class="st2" d="M237.1 149.8h9.8v9.8h-9.8z"/><circle cx="242" cy="154.6" r="1.9"/></g><g class="st1"><path class="st2" d="M237.1 140h9.8v9.8h-9.8z"/><path class="st2" d="M237.1 140h9.8v9.8h-9.8z"/><circle cx="242" cy="144.9" r="1.9"/></g><g class="st1"><path class="st2" d="M237.1 130.3h9.8v9.8h-9.8z"/><path class="st2" d="M237.1 130.3h9.8v9.8h-9.8z"/><circle cx="242" cy="135.1" r="1.9"/></g><g class="st1"><path class="st2" d="M237.1 120.5h9.8v9.8h-9.8z"/><path class="st2" d="M237.1 120.5h9.8v9.8h-9.8z"/><circle cx="242" cy="125.4" r="1.9"/></g><g class="st1"><path class="st2" d="M237.1 110.8h9.8v9.8h-9.8z"/><path class="st2" d="M237.1 110.8h9.8v9.8h-9.8z"/><circle cx="242" cy="115.6" r="1.9"/></g><g class="st1"><path class="st2" d="M237.1 101h9.8v9.8h-9.8z"/><path class="st2" d="M237.1 101h9.8v9.8h-9.8z"/><circle cx="242" cy="105.9" r="1.9"/></g><g class="st1"><path class="st2" d="M237.1 91.3h9.8v9.8h-9.8z"/><path class="st2" d="M237.1 91.3h9.8v9.8h-9.8z"/><circle cx="242" cy="96.1" r="1.9"/></g><g class="st1"><path class="st2" d="M237.1 81.5h9.8v9.8h-9.8z"/><path class="st2" d="M237.1 81.5h9.8v9.8h-9.8z"/><circle cx="242" cy="86.4" r="1.9"/></g><g class="st1"><path class="st2" d="M237.1 71.8h9.8v9.8h-9.8z"/><path class="st2" d="M237.1 71.8h9.8v9.8h-9.8z"/><circle cx="242" cy="76.6" r="1.9"/></g><g class="st1"><path class="st2" d="M237.1 62h9.8v9.8h-9.8z"/><path class="st2" d="M237.1 62h9.8v9.8h-9.8z"/><circle cx="242" cy="66.9" r="1.9"/></g><g class="st1"><path class="st2" d="M237.1 52.3h9.8v9.8h-9.8z"/><path class="st2" d="M237.1 52.3h9.8v9.8h-9.8z"/><circle cx="242" cy="57.1" r="1.9"/></g><g class="st1"><path class="st2" d="M237.1 42.5h9.8v9.8h-9.8z"/><path class="st2" d="M237.1 42.5h9.8v9.8h-9.8z"/><circle cx="242" cy="47.4" r="1.9"/></g><g class="st1"><path class="st2" d="M237.1 32.8h9.8v9.8h-9.8z"/><path class="st2" d="M237.1 32.8h9.8v9.8h-9.8z"/><circle cx="242" cy="37.6" r="1.9"/></g><g class="st1"><path class="st2" d="M237.1 23h9.8v9.8h-9.8z"/><path class="st2" d="M237.1 23h9.8v9.8h-9.8z"/><circle cx="242" cy="27.9" r="1.9"/></g><g class="st1"><path class="st2" d="M237.1 13.3h9.8v9.8h-9.8z"/><path class="st2" d="M237.1 13.3h9.8v9.8h-9.8z"/><circle cx="242" cy="18.1" r="1.9"/></g><g class="st1"><path class="st2" d="M237.1 3.5h9.8v9.8h-9.8z"/><path class="st2" d="M237.1 3.5h9.8v9.8h-9.8z"/><circle cx="242" cy="8.4" r="1.9"/></g><g class="st1"><path class="st2" d="M227.3 179h9.8v9.8h-9.8z"/><path class="st2" d="M227.3 179h9.8v9.8h-9.8z"/><circle cx="232.2" cy="183.9" r="1.9"/></g><g class="st1"><path class="st2" d="M227.3 169.3h9.8v9.8h-9.8z"/><path class="st2" d="M227.3 169.3h9.8v9.8h-9.8z"/><circle cx="232.2" cy="174.1" r="1.9"/></g><g class="st1"><path class="st2" d="M227.3 159.5h9.8v9.8h-9.8z"/><path class="st2" d="M227.3 159.5h9.8v9.8h-9.8z"/><circle cx="232.2" cy="164.4" r="1.9"/></g><g class="st1"><path class="st2" d="M227.3 149.8h9.8v9.8h-9.8z"/><path class="st2" d="M227.3 149.8h9.8v9.8h-9.8z"/><circle cx="232.2" cy="154.6" r="1.9"/></g><g class="st1"><path class="st2" d="M227.3 140h9.8v9.8h-9.8z"/><path class="st2" d="M227.3 140h9.8v9.8h-9.8z"/><circle cx="232.2" cy="144.9" r="1.9"/></g><g class="st1"><path class="st2" d="M227.3 130.3h9.8v9.8h-9.8z"/><path class="st2" d="M227.3 130.3h9.8v9.8h-9.8z"/><circle cx="232.2" cy="135.1" r="1.9"/></g><g class="st1"><path class="st2" d="M227.3 120.5h9.8v9.8h-9.8z"/><path class="st2" d="M227.3 120.5h9.8v9.8h-9.8z"/><circle cx="232.2" cy="125.4" r="1.9"/></g><g class="st1"><path class="st2" d="M227.3 110.8h9.8v9.8h-9.8z"/><path class="st2" d="M227.3 110.8h9.8v9.8h-9.8z"/><circle cx="232.2" cy="115.6" r="1.9"/></g><g class="st1"><path class="st2" d="M227.3 101h9.8v9.8h-9.8z"/><path class="st2" d="M227.3 101h9.8v9.8h-9.8z"/><circle cx="232.2" cy="105.9" r="1.9"/></g><g class="st1"><path class="st2" d="M227.3 91.3h9.8v9.8h-9.8z"/><path class="st2" d="M227.3 91.3h9.8v9.8h-9.8z"/><circle cx="232.2" cy="96.1" r="1.9"/></g><g class="st1"><path class="st2" d="M227.3 81.5h9.8v9.8h-9.8z"/><path class="st2" d="M227.3 81.5h9.8v9.8h-9.8z"/><circle cx="232.2" cy="86.4" r="1.9"/></g><g class="st1"><path class="st2" d="M227.3 71.8h9.8v9.8h-9.8z"/><path class="st2" d="M227.3 71.8h9.8v9.8h-9.8z"/><circle cx="232.2" cy="76.6" r="1.9"/></g><g class="st1"><path class="st2" d="M227.3 62h9.8v9.8h-9.8z"/><path class="st2" d="M227.3 62h9.8v9.8h-9.8z"/><circle cx="232.2" cy="66.9" r="1.9"/></g><g class="st1"><path class="st2" d="M227.3 52.3h9.8v9.8h-9.8z"/><path class="st2" d="M227.3 52.3h9.8v9.8h-9.8z"/><circle cx="232.2" cy="57.1" r="1.9"/></g><g class="st1"><path class="st2" d="M227.3 42.5h9.8v9.8h-9.8z"/><path class="st2" d="M227.3 42.5h9.8v9.8h-9.8z"/><circle cx="232.2" cy="47.4" r="1.9"/></g><g class="st1"><path class="st2" d="M227.3 32.8h9.8v9.8h-9.8z"/><path class="st2" d="M227.3 32.8h9.8v9.8h-9.8z"/><circle cx="232.2" cy="37.6" r="1.9"/></g><g class="st1"><path class="st2" d="M227.3 23h9.8v9.8h-9.8z"/><path class="st2" d="M227.3 23h9.8v9.8h-9.8z"/><circle cx="232.2" cy="27.9" r="1.9"/></g><g class="st1"><path class="st2" d="M227.3 13.3h9.8v9.8h-9.8z"/><path class="st2" d="M227.3 13.3h9.8v9.8h-9.8z"/><circle cx="232.2" cy="18.1" r="1.9"/></g><g class="st1"><path class="st2" d="M227.3 3.5h9.8v9.8h-9.8z"/><path class="st2" d="M227.3 3.5h9.8v9.8h-9.8z"/><circle cx="232.2" cy="8.4" r="1.9"/></g><g class="st1"><path class="st2" d="M217.6 179h9.8v9.8h-9.8z"/><path class="st2" d="M217.6 179h9.8v9.8h-9.8z"/><circle cx="222.5" cy="183.9" r="1.9"/></g><g class="st1"><path class="st2" d="M217.6 169.3h9.8v9.8h-9.8z"/><path class="st2" d="M217.6 169.3h9.8v9.8h-9.8z"/><circle cx="222.5" cy="174.1" r="1.9"/></g><g class="st1"><path class="st2" d="M217.6 159.5h9.8v9.8h-9.8z"/><path class="st2" d="M217.6 159.5h9.8v9.8h-9.8z"/><circle cx="222.5" cy="164.4" r="1.9"/></g><g class="st1"><path class="st2" d="M217.6 149.8h9.8v9.8h-9.8z"/><path class="st2" d="M217.6 149.8h9.8v9.8h-9.8z"/><circle cx="222.5" cy="154.6" r="1.9"/></g><g class="st1"><path class="st2" d="M217.6 140h9.8v9.8h-9.8z"/><path class="st2" d="M217.6 140h9.8v9.8h-9.8z"/><circle cx="222.5" cy="144.9" r="1.9"/></g><g class="st1"><path class="st2" d="M217.6 130.3h9.8v9.8h-9.8z"/><path class="st2" d="M217.6 130.3h9.8v9.8h-9.8z"/><circle cx="222.5" cy="135.1" r="1.9"/></g><g class="st1"><path class="st2" d="M217.6 120.5h9.8v9.8h-9.8z"/><path class="st2" d="M217.6 120.5h9.8v9.8h-9.8z"/><circle cx="222.5" cy="125.4" r="1.9"/></g><g class="st1"><path class="st2" d="M217.6 110.8h9.8v9.8h-9.8z"/><path class="st2" d="M217.6 110.8h9.8v9.8h-9.8z"/><circle cx="222.5" cy="115.6" r="1.9"/></g><g class="st1"><path class="st2" d="M217.6 101h9.8v9.8h-9.8z"/><path class="st2" d="M217.6 101h9.8v9.8h-9.8z"/><circle cx="222.5" cy="105.9" r="1.9"/></g><g class="st1"><path class="st2" d="M217.6 91.3h9.8v9.8h-9.8z"/><path class="st2" d="M217.6 91.3h9.8v9.8h-9.8z"/><circle cx="222.5" cy="96.1" r="1.9"/></g><g class="st1"><path class="st2" d="M217.6 81.5h9.8v9.8h-9.8z"/><path class="st2" d="M217.6 81.5h9.8v9.8h-9.8z"/><circle cx="222.5" cy="86.4" r="1.9"/></g><g class="st1"><path class="st2" d="M217.6 71.8h9.8v9.8h-9.8z"/><path class="st2" d="M217.6 71.8h9.8v9.8h-9.8z"/><circle cx="222.5" cy="76.6" r="1.9"/></g><g class="st1"><path class="st2" d="M217.6 62h9.8v9.8h-9.8z"/><path class="st2" d="M217.6 62h9.8v9.8h-9.8z"/><circle cx="222.5" cy="66.9" r="1.9"/></g><g class="st1"><path class="st2" d="M217.6 52.3h9.8v9.8h-9.8z"/><path class="st2" d="M217.6 52.3h9.8v9.8h-9.8z"/><circle cx="222.5" cy="57.1" r="1.9"/></g><g class="st1"><path class="st2" d="M217.6 42.5h9.8v9.8h-9.8z"/><path class="st2" d="M217.6 42.5h9.8v9.8h-9.8z"/><circle cx="222.5" cy="47.4" r="1.9"/></g><g class="st1"><path class="st2" d="M217.6 32.8h9.8v9.8h-9.8z"/><path class="st2" d="M217.6 32.8h9.8v9.8h-9.8z"/><circle cx="222.5" cy="37.6" r="1.9"/></g><g class="st1"><path class="st2" d="M217.6 23h9.8v9.8h-9.8z"/><path class="st2" d="M217.6 23h9.8v9.8h-9.8z"/><circle cx="222.5" cy="27.9" r="1.9"/></g><g class="st1"><path class="st2" d="M217.6 13.3h9.8v9.8h-9.8z"/><path class="st2" d="M217.6 13.3h9.8v9.8h-9.8z"/><circle cx="222.5" cy="18.1" r="1.9"/></g><g class="st1"><path class="st2" d="M217.6 3.5h9.8v9.8h-9.8z"/><path class="st2" d="M217.6 3.5h9.8v9.8h-9.8z"/><circle cx="222.5" cy="8.4" r="1.9"/></g><g class="st1"><path class="st2" d="M207.8 179h9.8v9.8h-9.8z"/><path class="st2" d="M207.8 179h9.8v9.8h-9.8z"/><circle cx="212.7" cy="183.9" r="1.9"/></g><g class="st1"><path class="st2" d="M207.8 169.3h9.8v9.8h-9.8z"/><path class="st2" d="M207.8 169.3h9.8v9.8h-9.8z"/><circle cx="212.7" cy="174.1" r="1.9"/></g><g class="st1"><path class="st2" d="M207.8 159.5h9.8v9.8h-9.8z"/><path class="st2" d="M207.8 159.5h9.8v9.8h-9.8z"/><circle cx="212.7" cy="164.4" r="1.9"/></g><g class="st1"><path class="st2" d="M207.8 149.8h9.8v9.8h-9.8z"/><path class="st2" d="M207.8 149.8h9.8v9.8h-9.8z"/><circle cx="212.7" cy="154.6" r="1.9"/></g><g class="st1"><path class="st2" d="M207.8 140h9.8v9.8h-9.8z"/><path class="st2" d="M207.8 140h9.8v9.8h-9.8z"/><circle cx="212.7" cy="144.9" r="1.9"/></g><g class="st1"><path class="st2" d="M207.8 130.3h9.8v9.8h-9.8z"/><path class="st2" d="M207.8 130.3h9.8v9.8h-9.8z"/><circle cx="212.7" cy="135.1" r="1.9"/></g><g class="st1"><path class="st2" d="M207.8 120.5h9.8v9.8h-9.8z"/><path class="st2" d="M207.8 120.5h9.8v9.8h-9.8z"/><circle cx="212.7" cy="125.4" r="1.9"/></g><g class="st1"><path class="st2" d="M207.8 110.8h9.8v9.8h-9.8z"/><path class="st2" d="M207.8 110.8h9.8v9.8h-9.8z"/><circle cx="212.7" cy="115.6" r="1.9"/></g><g class="st1"><path class="st2" d="M207.8 101h9.8v9.8h-9.8z"/><path class="st2" d="M207.8 101h9.8v9.8h-9.8z"/><circle cx="212.7" cy="105.9" r="1.9"/></g><g class="st1"><path class="st2" d="M207.8 91.3h9.8v9.8h-9.8z"/><path class="st2" d="M207.8 91.3h9.8v9.8h-9.8z"/><circle cx="212.7" cy="96.1" r="1.9"/></g><g class="st1"><path class="st2" d="M207.8 81.5h9.8v9.8h-9.8z"/><path class="st2" d="M207.8 81.5h9.8v9.8h-9.8z"/><circle cx="212.7" cy="86.4" r="1.9"/></g><g class="st1"><path class="st2" d="M207.8 71.8h9.8v9.8h-9.8z"/><path class="st2" d="M207.8 71.8h9.8v9.8h-9.8z"/><circle cx="212.7" cy="76.6" r="1.9"/></g><g class="st1"><path class="st2" d="M207.8 62h9.8v9.8h-9.8z"/><path class="st2" d="M207.8 62h9.8v9.8h-9.8z"/><circle cx="212.7" cy="66.9" r="1.9"/></g><g class="st1"><path class="st2" d="M207.8 52.3h9.8v9.8h-9.8z"/><path class="st2" d="M207.8 52.3h9.8v9.8h-9.8z"/><circle cx="212.7" cy="57.1" r="1.9"/></g><g class="st1"><path class="st2" d="M207.8 42.5h9.8v9.8h-9.8z"/><path class="st2" d="M207.8 42.5h9.8v9.8h-9.8z"/><circle cx="212.7" cy="47.4" r="1.9"/></g><g class="st1"><path class="st2" d="M207.8 32.8h9.8v9.8h-9.8z"/><path class="st2" d="M207.8 32.8h9.8v9.8h-9.8z"/><circle cx="212.7" cy="37.6" r="1.9"/></g><g class="st1"><path class="st2" d="M207.8 23h9.8v9.8h-9.8z"/><path class="st2" d="M207.8 23h9.8v9.8h-9.8z"/><circle cx="212.7" cy="27.9" r="1.9"/></g><g class="st1"><path class="st2" d="M207.8 13.3h9.8v9.8h-9.8z"/><path class="st2" d="M207.8 13.3h9.8v9.8h-9.8z"/><circle cx="212.7" cy="18.1" r="1.9"/></g><g class="st1"><path class="st2" d="M207.8 3.5h9.8v9.8h-9.8z"/><path class="st2" d="M207.8 3.5h9.8v9.8h-9.8z"/><circle cx="212.7" cy="8.4" r="1.9"/></g><g class="st1"><path class="st2" d="M198.1 179h9.8v9.8h-9.8z"/><path class="st2" d="M198.1 179h9.8v9.8h-9.8z"/><circle cx="203" cy="183.9" r="1.9"/></g><g class="st1"><path class="st2" d="M198.1 169.3h9.8v9.8h-9.8z"/><path class="st2" d="M198.1 169.3h9.8v9.8h-9.8z"/><circle cx="203" cy="174.1" r="1.9"/></g><g class="st1"><path class="st2" d="M198.1 159.5h9.8v9.8h-9.8z"/><path class="st2" d="M198.1 159.5h9.8v9.8h-9.8z"/><circle cx="203" cy="164.4" r="1.9"/></g><g class="st1"><path class="st2" d="M198.1 149.8h9.8v9.8h-9.8z"/><path class="st2" d="M198.1 149.8h9.8v9.8h-9.8z"/><circle cx="203" cy="154.6" r="1.9"/></g><g class="st1"><path class="st2" d="M198.1 140h9.8v9.8h-9.8z"/><path class="st2" d="M198.1 140h9.8v9.8h-9.8z"/><circle cx="203" cy="144.9" r="1.9"/></g><g class="st1"><path class="st2" d="M198.1 130.3h9.8v9.8h-9.8z"/><path class="st2" d="M198.1 130.3h9.8v9.8h-9.8z"/><circle cx="203" cy="135.1" r="1.9"/></g><g class="st1"><path class="st2" d="M198.1 120.5h9.8v9.8h-9.8z"/><path class="st2" d="M198.1 120.5h9.8v9.8h-9.8z"/><circle cx="203" cy="125.4" r="1.9"/></g><g class="st1"><path class="st2" d="M198.1 110.8h9.8v9.8h-9.8z"/><path class="st2" d="M198.1 110.8h9.8v9.8h-9.8z"/><circle cx="203" cy="115.6" r="1.9"/></g><g class="st1"><path class="st2" d="M198.1 101h9.8v9.8h-9.8z"/><path class="st2" d="M198.1 101h9.8v9.8h-9.8z"/><circle cx="203" cy="105.9" r="1.9"/></g><g class="st1"><path class="st2" d="M198.1 91.3h9.8v9.8h-9.8z"/><path class="st2" d="M198.1 91.3h9.8v9.8h-9.8z"/><circle cx="203" cy="96.1" r="1.9"/></g><g class="st1"><path class="st2" d="M198.1 81.5h9.8v9.8h-9.8z"/><path class="st2" d="M198.1 81.5h9.8v9.8h-9.8z"/><circle cx="203" cy="86.4" r="1.9"/></g><g class="st1"><path class="st2" d="M198.1 71.8h9.8v9.8h-9.8z"/><path class="st2" d="M198.1 71.8h9.8v9.8h-9.8z"/><circle cx="203" cy="76.6" r="1.9"/></g><g class="st1"><path class="st2" d="M198.1 62h9.8v9.8h-9.8z"/><path class="st2" d="M198.1 62h9.8v9.8h-9.8z"/><circle cx="203" cy="66.9" r="1.9"/></g><g class="st1"><path class="st2" d="M198.1 52.3h9.8v9.8h-9.8z"/><path class="st2" d="M198.1 52.3h9.8v9.8h-9.8z"/><circle cx="203" cy="57.1" r="1.9"/></g><g class="st1"><path class="st2" d="M198.1 42.5h9.8v9.8h-9.8z"/><path class="st2" d="M198.1 42.5h9.8v9.8h-9.8z"/><circle cx="203" cy="47.4" r="1.9"/></g><g class="st1"><path class="st2" d="M198.1 32.8h9.8v9.8h-9.8z"/><path class="st2" d="M198.1 32.8h9.8v9.8h-9.8z"/><circle cx="203" cy="37.6" r="1.9"/></g><g class="st1"><path class="st2" d="M198.1 23h9.8v9.8h-9.8z"/><path class="st2" d="M198.1 23h9.8v9.8h-9.8z"/><circle cx="203" cy="27.9" r="1.9"/></g><g class="st1"><path class="st2" d="M198.1 13.3h9.8v9.8h-9.8z"/><path class="st2" d="M198.1 13.3h9.8v9.8h-9.8z"/><circle cx="203" cy="18.1" r="1.9"/></g><g class="st1"><path class="st2" d="M198.1 3.5h9.8v9.8h-9.8z"/><path class="st2" d="M198.1 3.5h9.8v9.8h-9.8z"/><circle cx="203" cy="8.4" r="1.9"/></g><g class="st1"><path class="st2" d="M188.3 179h9.8v9.8h-9.8z"/><path class="st2" d="M188.3 179h9.8v9.8h-9.8z"/><circle cx="193.2" cy="183.9" r="1.9"/></g><g class="st1"><path class="st2" d="M188.3 169.3h9.8v9.8h-9.8z"/><path class="st2" d="M188.3 169.3h9.8v9.8h-9.8z"/><circle cx="193.2" cy="174.1" r="1.9"/></g><g class="st1"><path class="st2" d="M188.3 159.5h9.8v9.8h-9.8z"/><path class="st2" d="M188.3 159.5h9.8v9.8h-9.8z"/><circle cx="193.2" cy="164.4" r="1.9"/></g><g class="st1"><path class="st2" d="M188.3 149.8h9.8v9.8h-9.8z"/><path class="st2" d="M188.3 149.8h9.8v9.8h-9.8z"/><circle cx="193.2" cy="154.6" r="1.9"/></g><g class="st1"><path class="st2" d="M188.3 140h9.8v9.8h-9.8z"/><path class="st2" d="M188.3 140h9.8v9.8h-9.8z"/><circle cx="193.2" cy="144.9" r="1.9"/></g><g class="st1"><path class="st2" d="M188.3 130.3h9.8v9.8h-9.8z"/><path class="st2" d="M188.3 130.3h9.8v9.8h-9.8z"/><circle cx="193.2" cy="135.1" r="1.9"/></g><g class="st1"><path class="st2" d="M188.3 120.5h9.8v9.8h-9.8z"/><path class="st2" d="M188.3 120.5h9.8v9.8h-9.8z"/><circle cx="193.2" cy="125.4" r="1.9"/></g><g class="st1"><path class="st2" d="M188.3 110.8h9.8v9.8h-9.8z"/><path class="st2" d="M188.3 110.8h9.8v9.8h-9.8z"/><circle cx="193.2" cy="115.6" r="1.9"/></g><g class="st1"><path class="st2" d="M188.3 101h9.8v9.8h-9.8z"/><path class="st2" d="M188.3 101h9.8v9.8h-9.8z"/><circle cx="193.2" cy="105.9" r="1.9"/></g><g class="st1"><path class="st2" d="M188.3 91.3h9.8v9.8h-9.8z"/><path class="st2" d="M188.3 91.3h9.8v9.8h-9.8z"/><circle cx="193.2" cy="96.1" r="1.9"/></g><g class="st1"><path class="st2" d="M188.3 81.5h9.8v9.8h-9.8z"/><path class="st2" d="M188.3 81.5h9.8v9.8h-9.8z"/><circle cx="193.2" cy="86.4" r="1.9"/></g><g class="st1"><path class="st2" d="M188.3 71.8h9.8v9.8h-9.8z"/><path class="st2" d="M188.3 71.8h9.8v9.8h-9.8z"/><circle cx="193.2" cy="76.6" r="1.9"/></g><g class="st1"><path class="st2" d="M188.3 62h9.8v9.8h-9.8z"/><path class="st2" d="M188.3 62h9.8v9.8h-9.8z"/><circle cx="193.2" cy="66.9" r="1.9"/></g><g class="st1"><path class="st2" d="M188.3 52.3h9.8v9.8h-9.8z"/><path class="st2" d="M188.3 52.3h9.8v9.8h-9.8z"/><circle cx="193.2" cy="57.1" r="1.9"/></g><g class="st1"><path class="st2" d="M188.3 42.5h9.8v9.8h-9.8z"/><path class="st2" d="M188.3 42.5h9.8v9.8h-9.8z"/><circle cx="193.2" cy="47.4" r="1.9"/></g><g class="st1"><path class="st2" d="M188.3 32.8h9.8v9.8h-9.8z"/><path class="st2" d="M188.3 32.8h9.8v9.8h-9.8z"/><circle cx="193.2" cy="37.6" r="1.9"/></g><g class="st1"><path class="st2" d="M188.3 23h9.8v9.8h-9.8z"/><path class="st2" d="M188.3 23h9.8v9.8h-9.8z"/><circle cx="193.2" cy="27.9" r="1.9"/></g><g class="st1"><path class="st2" d="M188.3 13.3h9.8v9.8h-9.8z"/><path class="st2" d="M188.3 13.3h9.8v9.8h-9.8z"/><circle cx="193.2" cy="18.1" r="1.9"/></g><g class="st1"><path class="st2" d="M188.3 3.5h9.8v9.8h-9.8z"/><path class="st2" d="M188.3 3.5h9.8v9.8h-9.8z"/><circle cx="193.2" cy="8.4" r="1.9"/></g><g class="st1"><path class="st2" d="M178.6 179h9.8v9.8h-9.8z"/><path class="st2" d="M178.6 179h9.8v9.8h-9.8z"/><circle cx="183.5" cy="183.9" r="1.9"/></g><g class="st1"><path class="st2" d="M178.6 169.3h9.8v9.8h-9.8z"/><path class="st2" d="M178.6 169.3h9.8v9.8h-9.8z"/><circle cx="183.5" cy="174.1" r="1.9"/></g><g class="st1"><path class="st2" d="M178.6 159.5h9.8v9.8h-9.8z"/><path class="st2" d="M178.6 159.5h9.8v9.8h-9.8z"/><circle cx="183.5" cy="164.4" r="1.9"/></g><g class="st1"><path class="st2" d="M178.6 149.8h9.8v9.8h-9.8z"/><path class="st2" d="M178.6 149.8h9.8v9.8h-9.8z"/><circle cx="183.5" cy="154.6" r="1.9"/></g><g class="st1"><path class="st2" d="M178.6 140h9.8v9.8h-9.8z"/><path class="st2" d="M178.6 140h9.8v9.8h-9.8z"/><circle cx="183.5" cy="144.9" r="1.9"/></g><g class="st1"><path class="st2" d="M178.6 130.3h9.8v9.8h-9.8z"/><path class="st2" d="M178.6 130.3h9.8v9.8h-9.8z"/><circle cx="183.5" cy="135.1" r="1.9"/></g><g class="st1"><path class="st2" d="M178.6 120.5h9.8v9.8h-9.8z"/><path class="st2" d="M178.6 120.5h9.8v9.8h-9.8z"/><circle cx="183.5" cy="125.4" r="1.9"/></g><g class="st1"><path class="st2" d="M178.6 110.8h9.8v9.8h-9.8z"/><path class="st2" d="M178.6 110.8h9.8v9.8h-9.8z"/><circle cx="183.5" cy="115.6" r="1.9"/></g><g class="st1"><path class="st2" d="M178.6 101h9.8v9.8h-9.8z"/><path class="st2" d="M178.6 101h9.8v9.8h-9.8z"/><circle cx="183.5" cy="105.9" r="1.9"/></g><g class="st1"><path class="st2" d="M178.6 91.3h9.8v9.8h-9.8z"/><path class="st2" d="M178.6 91.3h9.8v9.8h-9.8z"/><circle cx="183.5" cy="96.1" r="1.9"/></g><g class="st1"><path class="st2" d="M178.6 81.5h9.8v9.8h-9.8z"/><path class="st2" d="M178.6 81.5h9.8v9.8h-9.8z"/><circle cx="183.5" cy="86.4" r="1.9"/></g><g class="st1"><path class="st2" d="M178.6 71.8h9.8v9.8h-9.8z"/><path class="st2" d="M178.6 71.8h9.8v9.8h-9.8z"/><circle cx="183.5" cy="76.6" r="1.9"/></g><g class="st1"><path class="st2" d="M178.6 62h9.8v9.8h-9.8z"/><path class="st2" d="M178.6 62h9.8v9.8h-9.8z"/><circle cx="183.5" cy="66.9" r="1.9"/></g><g class="st1"><path class="st2" d="M178.6 52.3h9.8v9.8h-9.8z"/><path class="st2" d="M178.6 52.3h9.8v9.8h-9.8z"/><circle cx="183.5" cy="57.1" r="1.9"/></g><g class="st1"><path class="st2" d="M178.6 42.5h9.8v9.8h-9.8z"/><path class="st2" d="M178.6 42.5h9.8v9.8h-9.8z"/><circle cx="183.5" cy="47.4" r="1.9"/></g><g class="st1"><path class="st2" d="M178.6 32.8h9.8v9.8h-9.8z"/><path class="st2" d="M178.6 32.8h9.8v9.8h-9.8z"/><circle cx="183.5" cy="37.6" r="1.9"/></g><g class="st1"><path class="st2" d="M178.6 23h9.8v9.8h-9.8z"/><path class="st2" d="M178.6 23h9.8v9.8h-9.8z"/><circle cx="183.5" cy="27.9" r="1.9"/></g><g class="st1"><path class="st2" d="M178.6 13.3h9.8v9.8h-9.8z"/><path class="st2" d="M178.6 13.3h9.8v9.8h-9.8z"/><circle cx="183.5" cy="18.1" r="1.9"/></g><g class="st1"><path class="st2" d="M178.6 3.5h9.8v9.8h-9.8z"/><path class="st2" d="M178.6 3.5h9.8v9.8h-9.8z"/><circle cx="183.5" cy="8.4" r="1.9"/></g><g class="st1"><path class="st2" d="M168.8 179h9.8v9.8h-9.8z"/><path class="st2" d="M168.8 179h9.8v9.8h-9.8z"/><circle cx="173.7" cy="183.9" r="1.9"/></g><g class="st1"><path class="st2" d="M168.8 169.3h9.8v9.8h-9.8z"/><path class="st2" d="M168.8 169.3h9.8v9.8h-9.8z"/><circle cx="173.7" cy="174.1" r="1.9"/></g><g class="st1"><path class="st2" d="M168.8 159.5h9.8v9.8h-9.8z"/><path class="st2" d="M168.8 159.5h9.8v9.8h-9.8z"/><circle cx="173.7" cy="164.4" r="1.9"/></g><g class="st1"><path class="st2" d="M168.8 149.8h9.8v9.8h-9.8z"/><path class="st2" d="M168.8 149.8h9.8v9.8h-9.8z"/><circle cx="173.7" cy="154.6" r="1.9"/></g><g class="st1"><path class="st2" d="M168.8 140h9.8v9.8h-9.8z"/><path class="st2" d="M168.8 140h9.8v9.8h-9.8z"/><circle cx="173.7" cy="144.9" r="1.9"/></g><g class="st1"><path class="st2" d="M168.8 130.3h9.8v9.8h-9.8z"/><path class="st2" d="M168.8 130.3h9.8v9.8h-9.8z"/><circle cx="173.7" cy="135.1" r="1.9"/></g><g class="st1"><path class="st2" d="M168.8 120.5h9.8v9.8h-9.8z"/><path class="st2" d="M168.8 120.5h9.8v9.8h-9.8z"/><circle cx="173.7" cy="125.4" r="1.9"/></g><g class="st1"><path class="st2" d="M168.8 110.8h9.8v9.8h-9.8z"/><path class="st2" d="M168.8 110.8h9.8v9.8h-9.8z"/><circle cx="173.7" cy="115.6" r="1.9"/></g><g class="st1"><path class="st2" d="M168.8 101h9.8v9.8h-9.8z"/><path class="st2" d="M168.8 101h9.8v9.8h-9.8z"/><circle cx="173.7" cy="105.9" r="1.9"/></g><g class="st1"><path class="st2" d="M168.8 91.3h9.8v9.8h-9.8z"/><path class="st2" d="M168.8 91.3h9.8v9.8h-9.8z"/><circle cx="173.7" cy="96.1" r="1.9"/></g><g class="st1"><path class="st2" d="M168.8 81.5h9.8v9.8h-9.8z"/><path class="st2" d="M168.8 81.5h9.8v9.8h-9.8z"/><circle cx="173.7" cy="86.4" r="1.9"/></g><g class="st1"><path class="st2" d="M168.8 71.8h9.8v9.8h-9.8z"/><path class="st2" d="M168.8 71.8h9.8v9.8h-9.8z"/><circle cx="173.7" cy="76.6" r="1.9"/></g><g class="st1"><path class="st2" d="M168.8 62h9.8v9.8h-9.8z"/><path class="st2" d="M168.8 62h9.8v9.8h-9.8z"/><circle cx="173.7" cy="66.9" r="1.9"/></g><g class="st1"><path class="st2" d="M168.8 52.3h9.8v9.8h-9.8z"/><path class="st2" d="M168.8 52.3h9.8v9.8h-9.8z"/><circle cx="173.7" cy="57.1" r="1.9"/></g><g class="st1"><path class="st2" d="M168.8 42.5h9.8v9.8h-9.8z"/><path class="st2" d="M168.8 42.5h9.8v9.8h-9.8z"/><circle cx="173.7" cy="47.4" r="1.9"/></g><g class="st1"><path class="st2" d="M168.8 32.8h9.8v9.8h-9.8z"/><path class="st2" d="M168.8 32.8h9.8v9.8h-9.8z"/><circle cx="173.7" cy="37.6" r="1.9"/></g><g class="st1"><path class="st2" d="M168.8 23h9.8v9.8h-9.8z"/><path class="st2" d="M168.8 23h9.8v9.8h-9.8z"/><circle cx="173.7" cy="27.9" r="1.9"/></g><g class="st1"><path class="st2" d="M168.8 13.3h9.8v9.8h-9.8z"/><path class="st2" d="M168.8 13.3h9.8v9.8h-9.8z"/><circle cx="173.7" cy="18.1" r="1.9"/></g><g class="st1"><path class="st2" d="M168.8 3.5h9.8v9.8h-9.8z"/><path class="st2" d="M168.8 3.5h9.8v9.8h-9.8z"/><circle cx="173.7" cy="8.4" r="1.9"/></g><g class="st1"><path class="st2" d="M159.1 179h9.8v9.8h-9.8z"/><path class="st2" d="M159.1 179h9.8v9.8h-9.8z"/><circle cx="164" cy="183.9" r="1.9"/></g><g class="st1"><path class="st2" d="M159.1 169.3h9.8v9.8h-9.8z"/><path class="st2" d="M159.1 169.3h9.8v9.8h-9.8z"/><circle cx="164" cy="174.1" r="1.9"/></g><g class="st1"><path class="st2" d="M159.1 159.5h9.8v9.8h-9.8z"/><path class="st2" d="M159.1 159.5h9.8v9.8h-9.8z"/><circle cx="164" cy="164.4" r="1.9"/></g><g class="st1"><path class="st2" d="M159.1 149.8h9.8v9.8h-9.8z"/><path class="st2" d="M159.1 149.8h9.8v9.8h-9.8z"/><circle cx="164" cy="154.6" r="1.9"/></g><g class="st1"><path class="st2" d="M159.1 140h9.8v9.8h-9.8z"/><path class="st2" d="M159.1 140h9.8v9.8h-9.8z"/><circle cx="164" cy="144.9" r="1.9"/></g><g class="st1"><path class="st2" d="M159.1 130.3h9.8v9.8h-9.8z"/><path class="st2" d="M159.1 130.3h9.8v9.8h-9.8z"/><circle cx="164" cy="135.1" r="1.9"/></g><g class="st1"><path class="st2" d="M159.1 120.5h9.8v9.8h-9.8z"/><path class="st2" d="M159.1 120.5h9.8v9.8h-9.8z"/><circle cx="164" cy="125.4" r="1.9"/></g><g class="st1"><path class="st2" d="M159.1 110.8h9.8v9.8h-9.8z"/><path class="st2" d="M159.1 110.8h9.8v9.8h-9.8z"/><circle cx="164" cy="115.6" r="1.9"/></g><g class="st1"><path class="st2" d="M159.1 101h9.8v9.8h-9.8z"/><path class="st2" d="M159.1 101h9.8v9.8h-9.8z"/><circle cx="164" cy="105.9" r="1.9"/></g><g class="st1"><path class="st2" d="M159.1 91.3h9.8v9.8h-9.8z"/><path class="st2" d="M159.1 91.3h9.8v9.8h-9.8z"/><circle cx="164" cy="96.1" r="1.9"/></g><g class="st1"><path class="st2" d="M159.1 81.5h9.8v9.8h-9.8z"/><path class="st2" d="M159.1 81.5h9.8v9.8h-9.8z"/><circle cx="164" cy="86.4" r="1.9"/></g><g class="st1"><path class="st2" d="M159.1 71.8h9.8v9.8h-9.8z"/><path class="st2" d="M159.1 71.8h9.8v9.8h-9.8z"/><circle cx="164" cy="76.6" r="1.9"/></g><g class="st1"><path class="st2" d="M159.1 62h9.8v9.8h-9.8z"/><path class="st2" d="M159.1 62h9.8v9.8h-9.8z"/><circle cx="164" cy="66.9" r="1.9"/></g><g class="st1"><path class="st2" d="M159.1 52.3h9.8v9.8h-9.8z"/><path class="st2" d="M159.1 52.3h9.8v9.8h-9.8z"/><circle cx="164" cy="57.1" r="1.9"/></g><g class="st1"><path class="st2" d="M159.1 42.5h9.8v9.8h-9.8z"/><path class="st2" d="M159.1 42.5h9.8v9.8h-9.8z"/><circle cx="164" cy="47.4" r="1.9"/></g><g class="st1"><path class="st2" d="M159.1 32.8h9.8v9.8h-9.8z"/><path class="st2" d="M159.1 32.8h9.8v9.8h-9.8z"/><circle cx="164" cy="37.6" r="1.9"/></g><g class="st1"><path class="st2" d="M159.1 23h9.8v9.8h-9.8z"/><path class="st2" d="M159.1 23h9.8v9.8h-9.8z"/><circle cx="164" cy="27.9" r="1.9"/></g><g class="st1"><path class="st2" d="M159.1 13.3h9.8v9.8h-9.8z"/><path class="st2" d="M159.1 13.3h9.8v9.8h-9.8z"/><circle cx="164" cy="18.1" r="1.9"/></g><g class="st1"><path class="st2" d="M159.1 3.5h9.8v9.8h-9.8z"/><path class="st2" d="M159.1 3.5h9.8v9.8h-9.8z"/><circle cx="164" cy="8.4" r="1.9"/></g><g class="st1"><path class="st2" d="M149.3 179h9.8v9.8h-9.8z"/><path class="st2" d="M149.3 179h9.8v9.8h-9.8z"/><circle cx="154.2" cy="183.9" r="1.9"/></g><g class="st1"><path class="st2" d="M149.3 169.3h9.8v9.8h-9.8z"/><path class="st2" d="M149.3 169.3h9.8v9.8h-9.8z"/><circle cx="154.2" cy="174.1" r="1.9"/></g><g class="st1"><path class="st2" d="M149.3 159.5h9.8v9.8h-9.8z"/><path class="st2" d="M149.3 159.5h9.8v9.8h-9.8z"/><circle cx="154.2" cy="164.4" r="1.9"/></g><g class="st1"><path class="st2" d="M149.3 149.8h9.8v9.8h-9.8z"/><path class="st2" d="M149.3 149.8h9.8v9.8h-9.8z"/><circle cx="154.2" cy="154.6" r="1.9"/></g><g class="st1"><path class="st2" d="M149.3 140h9.8v9.8h-9.8z"/><path class="st2" d="M149.3 140h9.8v9.8h-9.8z"/><circle cx="154.2" cy="144.9" r="1.9"/></g><g class="st1"><path class="st2" d="M149.3 130.3h9.8v9.8h-9.8z"/><path class="st2" d="M149.3 130.3h9.8v9.8h-9.8z"/><circle cx="154.2" cy="135.1" r="1.9"/></g><g class="st1"><path class="st2" d="M149.3 120.5h9.8v9.8h-9.8z"/><path class="st2" d="M149.3 120.5h9.8v9.8h-9.8z"/><circle cx="154.2" cy="125.4" r="1.9"/></g><g class="st1"><path class="st2" d="M149.3 110.8h9.8v9.8h-9.8z"/><path class="st2" d="M149.3 110.8h9.8v9.8h-9.8z"/><circle cx="154.2" cy="115.6" r="1.9"/></g><g class="st1"><path class="st2" d="M149.3 101h9.8v9.8h-9.8z"/><path class="st2" d="M149.3 101h9.8v9.8h-9.8z"/><circle cx="154.2" cy="105.9" r="1.9"/></g><g class="st1"><path class="st2" d="M149.3 91.3h9.8v9.8h-9.8z"/><path class="st2" d="M149.3 91.3h9.8v9.8h-9.8z"/><circle cx="154.2" cy="96.1" r="1.9"/></g><g class="st1"><path class="st2" d="M149.3 81.5h9.8v9.8h-9.8z"/><path class="st2" d="M149.3 81.5h9.8v9.8h-9.8z"/><circle cx="154.2" cy="86.4" r="1.9"/></g><g class="st1"><path class="st2" d="M149.3 71.8h9.8v9.8h-9.8z"/><path class="st2" d="M149.3 71.8h9.8v9.8h-9.8z"/><circle cx="154.2" cy="76.6" r="1.9"/></g><g class="st1"><path class="st2" d="M149.3 62h9.8v9.8h-9.8z"/><path class="st2" d="M149.3 62h9.8v9.8h-9.8z"/><circle cx="154.2" cy="66.9" r="1.9"/></g><g class="st1"><path class="st2" d="M149.3 52.3h9.8v9.8h-9.8z"/><path class="st2" d="M149.3 52.3h9.8v9.8h-9.8z"/><circle cx="154.2" cy="57.1" r="1.9"/></g><g class="st1"><path class="st2" d="M149.3 42.5h9.8v9.8h-9.8z"/><path class="st2" d="M149.3 42.5h9.8v9.8h-9.8z"/><circle cx="154.2" cy="47.4" r="1.9"/></g><g class="st1"><path class="st2" d="M149.3 32.8h9.8v9.8h-9.8z"/><path class="st2" d="M149.3 32.8h9.8v9.8h-9.8z"/><circle cx="154.2" cy="37.6" r="1.9"/></g><g class="st1"><path class="st2" d="M149.3 23h9.8v9.8h-9.8z"/><path class="st2" d="M149.3 23h9.8v9.8h-9.8z"/><circle cx="154.2" cy="27.9" r="1.9"/></g><g class="st1"><path class="st2" d="M149.3 13.3h9.8v9.8h-9.8z"/><path class="st2" d="M149.3 13.3h9.8v9.8h-9.8z"/><circle cx="154.2" cy="18.1" r="1.9"/></g><g class="st1"><path class="st2" d="M149.3 3.5h9.8v9.8h-9.8z"/><path class="st2" d="M149.3 3.5h9.8v9.8h-9.8z"/><circle cx="154.2" cy="8.4" r="1.9"/></g><g class="st1"><path class="st2" d="M139.6 179h9.8v9.8h-9.8z"/><path class="st2" d="M139.6 179h9.8v9.8h-9.8z"/><circle cx="144.5" cy="183.9" r="1.9"/></g><g class="st1"><path class="st2" d="M139.6 169.3h9.8v9.8h-9.8z"/><path class="st2" d="M139.6 169.3h9.8v9.8h-9.8z"/><circle cx="144.5" cy="174.1" r="1.9"/></g><g class="st1"><path class="st2" d="M139.6 159.5h9.8v9.8h-9.8z"/><path class="st2" d="M139.6 159.5h9.8v9.8h-9.8z"/><circle cx="144.5" cy="164.4" r="1.9"/></g><g class="st1"><path class="st2" d="M139.6 149.8h9.8v9.8h-9.8z"/><path class="st2" d="M139.6 149.8h9.8v9.8h-9.8z"/><circle cx="144.5" cy="154.6" r="1.9"/></g><g class="st1"><path class="st2" d="M139.6 140h9.8v9.8h-9.8z"/><path class="st2" d="M139.6 140h9.8v9.8h-9.8z"/><circle cx="144.5" cy="144.9" r="1.9"/></g><g class="st1"><path class="st2" d="M139.6 130.3h9.8v9.8h-9.8z"/><path class="st2" d="M139.6 130.3h9.8v9.8h-9.8z"/><circle cx="144.5" cy="135.1" r="1.9"/></g><g class="st1"><path class="st2" d="M139.6 120.5h9.8v9.8h-9.8z"/><path class="st2" d="M139.6 120.5h9.8v9.8h-9.8z"/><circle cx="144.5" cy="125.4" r="1.9"/></g><g class="st1"><path class="st2" d="M139.6 110.8h9.8v9.8h-9.8z"/><path class="st2" d="M139.6 110.8h9.8v9.8h-9.8z"/><circle cx="144.5" cy="115.6" r="1.9"/></g><g class="st1"><path class="st2" d="M139.6 101h9.8v9.8h-9.8z"/><path class="st2" d="M139.6 101h9.8v9.8h-9.8z"/><circle cx="144.5" cy="105.9" r="1.9"/></g><g class="st1"><path class="st2" d="M139.6 91.3h9.8v9.8h-9.8z"/><path class="st2" d="M139.6 91.3h9.8v9.8h-9.8z"/><circle cx="144.5" cy="96.1" r="1.9"/></g><g class="st1"><path class="st2" d="M139.6 81.5h9.8v9.8h-9.8z"/><path class="st2" d="M139.6 81.5h9.8v9.8h-9.8z"/><circle cx="144.5" cy="86.4" r="1.9"/></g><g class="st1"><path class="st2" d="M139.6 71.8h9.8v9.8h-9.8z"/><path class="st2" d="M139.6 71.8h9.8v9.8h-9.8z"/><circle cx="144.5" cy="76.6" r="1.9"/></g><g class="st1"><path class="st2" d="M139.6 62h9.8v9.8h-9.8z"/><path class="st2" d="M139.6 62h9.8v9.8h-9.8z"/><circle cx="144.5" cy="66.9" r="1.9"/></g><g class="st1"><path class="st2" d="M139.6 52.3h9.8v9.8h-9.8z"/><path class="st2" d="M139.6 52.3h9.8v9.8h-9.8z"/><circle cx="144.5" cy="57.1" r="1.9"/></g><g class="st1"><path class="st2" d="M139.6 42.5h9.8v9.8h-9.8z"/><path class="st2" d="M139.6 42.5h9.8v9.8h-9.8z"/><circle cx="144.5" cy="47.4" r="1.9"/></g><g class="st1"><path class="st2" d="M139.6 32.8h9.8v9.8h-9.8z"/><path class="st2" d="M139.6 32.8h9.8v9.8h-9.8z"/><circle cx="144.5" cy="37.6" r="1.9"/></g><g class="st1"><path class="st2" d="M139.6 23h9.8v9.8h-9.8z"/><path class="st2" d="M139.6 23h9.8v9.8h-9.8z"/><circle cx="144.5" cy="27.9" r="1.9"/></g><g class="st1"><path class="st2" d="M139.6 13.3h9.8v9.8h-9.8z"/><path class="st2" d="M139.6 13.3h9.8v9.8h-9.8z"/><circle cx="144.5" cy="18.1" r="1.9"/></g><g class="st1"><path class="st2" d="M139.6 3.5h9.8v9.8h-9.8z"/><path class="st2" d="M139.6 3.5h9.8v9.8h-9.8z"/><circle cx="144.5" cy="8.4" r="1.9"/></g><g class="st1"><path class="st2" d="M129.8 179h9.8v9.8h-9.8z"/><path class="st2" d="M129.8 179h9.8v9.8h-9.8z"/><circle cx="134.7" cy="183.9" r="1.9"/></g><g class="st1"><path class="st2" d="M129.8 169.3h9.8v9.8h-9.8z"/><path class="st2" d="M129.8 169.3h9.8v9.8h-9.8z"/><circle cx="134.7" cy="174.1" r="1.9"/></g><g class="st1"><path class="st2" d="M129.8 159.5h9.8v9.8h-9.8z"/><path class="st2" d="M129.8 159.5h9.8v9.8h-9.8z"/><circle cx="134.7" cy="164.4" r="1.9"/></g><g class="st1"><path class="st2" d="M129.8 149.8h9.8v9.8h-9.8z"/><path class="st2" d="M129.8 149.8h9.8v9.8h-9.8z"/><circle cx="134.7" cy="154.6" r="1.9"/></g><g class="st1"><path class="st2" d="M129.8 140h9.8v9.8h-9.8z"/><path class="st2" d="M129.8 140h9.8v9.8h-9.8z"/><circle cx="134.7" cy="144.9" r="1.9"/></g><g class="st1"><path class="st2" d="M129.8 130.3h9.8v9.8h-9.8z"/><path class="st2" d="M129.8 130.3h9.8v9.8h-9.8z"/><circle cx="134.7" cy="135.1" r="1.9"/></g><g class="st1"><path class="st2" d="M129.8 120.5h9.8v9.8h-9.8z"/><path class="st2" d="M129.8 120.5h9.8v9.8h-9.8z"/><circle cx="134.7" cy="125.4" r="1.9"/></g><g class="st1"><path class="st2" d="M129.8 110.8h9.8v9.8h-9.8z"/><path class="st2" d="M129.8 110.8h9.8v9.8h-9.8z"/><circle cx="134.7" cy="115.6" r="1.9"/></g><g class="st1"><path class="st2" d="M129.8 101h9.8v9.8h-9.8z"/><path class="st2" d="M129.8 101h9.8v9.8h-9.8z"/><circle cx="134.7" cy="105.9" r="1.9"/></g><g class="st1"><path class="st2" d="M129.8 91.3h9.8v9.8h-9.8z"/><path class="st2" d="M129.8 91.3h9.8v9.8h-9.8z"/><circle cx="134.7" cy="96.1" r="1.9"/></g><g class="st1"><path class="st2" d="M129.8 81.5h9.8v9.8h-9.8z"/><path class="st2" d="M129.8 81.5h9.8v9.8h-9.8z"/><circle cx="134.7" cy="86.4" r="1.9"/></g><g class="st1"><path class="st2" d="M129.8 71.8h9.8v9.8h-9.8z"/><path class="st2" d="M129.8 71.8h9.8v9.8h-9.8z"/><circle cx="134.7" cy="76.6" r="1.9"/></g><g class="st1"><path class="st2" d="M129.8 62h9.8v9.8h-9.8z"/><path class="st2" d="M129.8 62h9.8v9.8h-9.8z"/><circle cx="134.7" cy="66.9" r="1.9"/></g><g class="st1"><path class="st2" d="M129.8 52.3h9.8v9.8h-9.8z"/><path class="st2" d="M129.8 52.3h9.8v9.8h-9.8z"/><circle cx="134.7" cy="57.1" r="1.9"/></g><g class="st1"><path class="st2" d="M129.8 42.5h9.8v9.8h-9.8z"/><path class="st2" d="M129.8 42.5h9.8v9.8h-9.8z"/><circle cx="134.7" cy="47.4" r="1.9"/></g><g class="st1"><path class="st2" d="M129.8 32.8h9.8v9.8h-9.8z"/><path class="st2" d="M129.8 32.8h9.8v9.8h-9.8z"/><circle cx="134.7" cy="37.6" r="1.9"/></g><g class="st1"><path class="st2" d="M129.8 23h9.8v9.8h-9.8z"/><path class="st2" d="M129.8 23h9.8v9.8h-9.8z"/><circle cx="134.7" cy="27.9" r="1.9"/></g><g class="st1"><path class="st2" d="M129.8 13.3h9.8v9.8h-9.8z"/><path class="st2" d="M129.8 13.3h9.8v9.8h-9.8z"/><circle cx="134.7" cy="18.1" r="1.9"/></g><g class="st1"><path class="st2" d="M129.8 3.5h9.8v9.8h-9.8z"/><path class="st2" d="M129.8 3.5h9.8v9.8h-9.8z"/><circle cx="134.7" cy="8.4" r="1.9"/></g><g class="st1"><path class="st2" d="M120.1 179h9.8v9.8h-9.8z"/><path class="st2" d="M120.1 179h9.8v9.8h-9.8z"/><circle cx="125" cy="183.9" r="1.9"/></g><g class="st1"><path class="st2" d="M120.1 169.3h9.8v9.8h-9.8z"/><path class="st2" d="M120.1 169.3h9.8v9.8h-9.8z"/><circle cx="125" cy="174.1" r="1.9"/></g><g class="st1"><path class="st2" d="M120.1 159.5h9.8v9.8h-9.8z"/><path class="st2" d="M120.1 159.5h9.8v9.8h-9.8z"/><circle cx="125" cy="164.4" r="1.9"/></g><g class="st1"><path class="st2" d="M120.1 149.8h9.8v9.8h-9.8z"/><path class="st2" d="M120.1 149.8h9.8v9.8h-9.8z"/><circle cx="125" cy="154.6" r="1.9"/></g><g class="st1"><path class="st2" d="M120.1 140h9.8v9.8h-9.8z"/><path class="st2" d="M120.1 140h9.8v9.8h-9.8z"/><circle cx="125" cy="144.9" r="1.9"/></g><g class="st1"><path class="st2" d="M120.1 130.3h9.8v9.8h-9.8z"/><path class="st2" d="M120.1 130.3h9.8v9.8h-9.8z"/><circle cx="125" cy="135.1" r="1.9"/></g><g class="st1"><path class="st2" d="M120.1 120.5h9.8v9.8h-9.8z"/><path class="st2" d="M120.1 120.5h9.8v9.8h-9.8z"/><circle cx="125" cy="125.4" r="1.9"/></g><g class="st1"><path class="st2" d="M120.1 110.8h9.8v9.8h-9.8z"/><path class="st2" d="M120.1 110.8h9.8v9.8h-9.8z"/><circle cx="125" cy="115.6" r="1.9"/></g><g class="st1"><path class="st2" d="M120.1 101h9.8v9.8h-9.8z"/><path class="st2" d="M120.1 101h9.8v9.8h-9.8z"/><circle cx="125" cy="105.9" r="1.9"/></g><g class="st1"><path class="st2" d="M120.1 91.3h9.8v9.8h-9.8z"/><path class="st2" d="M120.1 91.3h9.8v9.8h-9.8z"/><circle cx="125" cy="96.1" r="1.9"/></g><g class="st1"><path class="st2" d="M120.1 81.5h9.8v9.8h-9.8z"/><path class="st2" d="M120.1 81.5h9.8v9.8h-9.8z"/><circle cx="125" cy="86.4" r="1.9"/></g><g class="st1"><path class="st2" d="M120.1 71.8h9.8v9.8h-9.8z"/><path class="st2" d="M120.1 71.8h9.8v9.8h-9.8z"/><circle cx="125" cy="76.6" r="1.9"/></g><g class="st1"><path class="st2" d="M120.1 62h9.8v9.8h-9.8z"/><path class="st2" d="M120.1 62h9.8v9.8h-9.8z"/><circle cx="125" cy="66.9" r="1.9"/></g><g class="st1"><path class="st2" d="M120.1 52.3h9.8v9.8h-9.8z"/><path class="st2" d="M120.1 52.3h9.8v9.8h-9.8z"/><circle cx="125" cy="57.1" r="1.9"/></g><g class="st1"><path class="st2" d="M120.1 42.5h9.8v9.8h-9.8z"/><path class="st2" d="M120.1 42.5h9.8v9.8h-9.8z"/><circle cx="125" cy="47.4" r="1.9"/></g><g class="st1"><path class="st2" d="M120.1 32.8h9.8v9.8h-9.8z"/><path class="st2" d="M120.1 32.8h9.8v9.8h-9.8z"/><circle cx="125" cy="37.6" r="1.9"/></g><g class="st1"><path class="st2" d="M120.1 23h9.8v9.8h-9.8z"/><path class="st2" d="M120.1 23h9.8v9.8h-9.8z"/><circle cx="125" cy="27.9" r="1.9"/></g><g class="st1"><path class="st2" d="M120.1 13.3h9.8v9.8h-9.8z"/><path class="st2" d="M120.1 13.3h9.8v9.8h-9.8z"/><circle cx="125" cy="18.1" r="1.9"/></g><g class="st1"><path class="st2" d="M120.1 3.5h9.8v9.8h-9.8z"/><path class="st2" d="M120.1 3.5h9.8v9.8h-9.8z"/><circle cx="125" cy="8.4" r="1.9"/></g><g class="st1"><path class="st2" d="M110.3 179h9.8v9.8h-9.8z"/><path class="st2" d="M110.3 179h9.8v9.8h-9.8z"/><circle cx="115.2" cy="183.9" r="1.9"/></g><g class="st1"><path class="st2" d="M110.3 169.3h9.8v9.8h-9.8z"/><path class="st2" d="M110.3 169.3h9.8v9.8h-9.8z"/><circle cx="115.2" cy="174.1" r="1.9"/></g><g class="st1"><path class="st2" d="M110.3 159.5h9.8v9.8h-9.8z"/><path class="st2" d="M110.3 159.5h9.8v9.8h-9.8z"/><circle cx="115.2" cy="164.4" r="1.9"/></g><g class="st1"><path class="st2" d="M110.3 149.8h9.8v9.8h-9.8z"/><path class="st2" d="M110.3 149.8h9.8v9.8h-9.8z"/><circle cx="115.2" cy="154.6" r="1.9"/></g><g class="st1"><path class="st2" d="M110.3 140h9.8v9.8h-9.8z"/><path class="st2" d="M110.3 140h9.8v9.8h-9.8z"/><circle cx="115.2" cy="144.9" r="1.9"/></g><g class="st1"><path class="st2" d="M110.3 130.3h9.8v9.8h-9.8z"/><path class="st2" d="M110.3 130.3h9.8v9.8h-9.8z"/><circle cx="115.2" cy="135.1" r="1.9"/></g><g class="st1"><path class="st2" d="M110.3 120.5h9.8v9.8h-9.8z"/><path class="st2" d="M110.3 120.5h9.8v9.8h-9.8z"/><circle cx="115.2" cy="125.4" r="1.9"/></g><g class="st1"><path class="st2" d="M110.3 110.8h9.8v9.8h-9.8z"/><path class="st2" d="M110.3 110.8h9.8v9.8h-9.8z"/><circle cx="115.2" cy="115.6" r="1.9"/></g><g class="st1"><path class="st2" d="M110.3 101h9.8v9.8h-9.8z"/><path class="st2" d="M110.3 101h9.8v9.8h-9.8z"/><circle cx="115.2" cy="105.9" r="1.9"/></g><g class="st1"><path class="st2" d="M110.3 91.3h9.8v9.8h-9.8z"/><path class="st2" d="M110.3 91.3h9.8v9.8h-9.8z"/><circle cx="115.2" cy="96.1" r="1.9"/></g><g class="st1"><path class="st2" d="M110.3 81.5h9.8v9.8h-9.8z"/><path class="st2" d="M110.3 81.5h9.8v9.8h-9.8z"/><circle cx="115.2" cy="86.4" r="1.9"/></g><g class="st1"><path class="st2" d="M110.3 71.8h9.8v9.8h-9.8z"/><path class="st2" d="M110.3 71.8h9.8v9.8h-9.8z"/><circle cx="115.2" cy="76.6" r="1.9"/></g><g class="st1"><path class="st2" d="M110.3 62h9.8v9.8h-9.8z"/><path class="st2" d="M110.3 62h9.8v9.8h-9.8z"/><circle cx="115.2" cy="66.9" r="1.9"/></g><g class="st1"><path class="st2" d="M110.3 52.3h9.8v9.8h-9.8z"/><path class="st2" d="M110.3 52.3h9.8v9.8h-9.8z"/><circle cx="115.2" cy="57.1" r="1.9"/></g><g class="st1"><path class="st2" d="M110.3 42.5h9.8v9.8h-9.8z"/><path class="st2" d="M110.3 42.5h9.8v9.8h-9.8z"/><circle cx="115.2" cy="47.4" r="1.9"/></g><g class="st1"><path class="st2" d="M110.3 32.8h9.8v9.8h-9.8z"/><path class="st2" d="M110.3 32.8h9.8v9.8h-9.8z"/><circle cx="115.2" cy="37.6" r="1.9"/></g><g class="st1"><path class="st2" d="M110.3 23h9.8v9.8h-9.8z"/><path class="st2" d="M110.3 23h9.8v9.8h-9.8z"/><circle cx="115.2" cy="27.9" r="1.9"/></g><g class="st1"><path class="st2" d="M110.3 13.3h9.8v9.8h-9.8z"/><path class="st2" d="M110.3 13.3h9.8v9.8h-9.8z"/><circle cx="115.2" cy="18.1" r="1.9"/></g><g class="st1"><path class="st2" d="M110.3 3.5h9.8v9.8h-9.8z"/><path class="st2" d="M110.3 3.5h9.8v9.8h-9.8z"/><circle cx="115.2" cy="8.4" r="1.9"/></g><g class="st1"><path class="st2" d="M100.6 179h9.8v9.8h-9.8z"/><path class="st2" d="M100.6 179h9.8v9.8h-9.8z"/><circle cx="105.5" cy="183.9" r="1.9"/></g><g class="st1"><path class="st2" d="M100.6 169.3h9.8v9.8h-9.8z"/><path class="st2" d="M100.6 169.3h9.8v9.8h-9.8z"/><circle cx="105.5" cy="174.1" r="1.9"/></g><g class="st1"><path class="st2" d="M100.6 159.5h9.8v9.8h-9.8z"/><path class="st2" d="M100.6 159.5h9.8v9.8h-9.8z"/><circle cx="105.5" cy="164.4" r="1.9"/></g><g class="st1"><path class="st2" d="M100.6 149.8h9.8v9.8h-9.8z"/><path class="st2" d="M100.6 149.8h9.8v9.8h-9.8z"/><circle cx="105.5" cy="154.6" r="1.9"/></g><g class="st1"><path class="st2" d="M100.6 140h9.8v9.8h-9.8z"/><path class="st2" d="M100.6 140h9.8v9.8h-9.8z"/><circle cx="105.5" cy="144.9" r="1.9"/></g><g class="st1"><path class="st2" d="M100.6 130.3h9.8v9.8h-9.8z"/><path class="st2" d="M100.6 130.3h9.8v9.8h-9.8z"/><circle cx="105.5" cy="135.1" r="1.9"/></g><g class="st1"><path class="st2" d="M100.6 120.5h9.8v9.8h-9.8z"/><path class="st2" d="M100.6 120.5h9.8v9.8h-9.8z"/><circle cx="105.5" cy="125.4" r="1.9"/></g><g class="st1"><path class="st2" d="M100.6 110.8h9.8v9.8h-9.8z"/><path class="st2" d="M100.6 110.8h9.8v9.8h-9.8z"/><circle cx="105.5" cy="115.6" r="1.9"/></g><g class="st1"><path class="st2" d="M100.6 101h9.8v9.8h-9.8z"/><path class="st2" d="M100.6 101h9.8v9.8h-9.8z"/><circle cx="105.5" cy="105.9" r="1.9"/></g><g class="st1"><path class="st2" d="M100.6 91.3h9.8v9.8h-9.8z"/><path class="st2" d="M100.6 91.3h9.8v9.8h-9.8z"/><circle cx="105.5" cy="96.1" r="1.9"/></g><g class="st1"><path class="st2" d="M100.6 81.5h9.8v9.8h-9.8z"/><path class="st2" d="M100.6 81.5h9.8v9.8h-9.8z"/><circle cx="105.5" cy="86.4" r="1.9"/></g><g class="st1"><path class="st2" d="M100.6 71.8h9.8v9.8h-9.8z"/><path class="st2" d="M100.6 71.8h9.8v9.8h-9.8z"/><circle cx="105.5" cy="76.6" r="1.9"/></g><g class="st1"><path class="st2" d="M100.6 62h9.8v9.8h-9.8z"/><path class="st2" d="M100.6 62h9.8v9.8h-9.8z"/><circle cx="105.5" cy="66.9" r="1.9"/></g><g class="st1"><path class="st2" d="M100.6 52.3h9.8v9.8h-9.8z"/><path class="st2" d="M100.6 52.3h9.8v9.8h-9.8z"/><circle cx="105.5" cy="57.1" r="1.9"/></g><g class="st1"><path class="st2" d="M100.6 42.5h9.8v9.8h-9.8z"/><path class="st2" d="M100.6 42.5h9.8v9.8h-9.8z"/><circle cx="105.5" cy="47.4" r="1.9"/></g><g class="st1"><path class="st2" d="M100.6 32.8h9.8v9.8h-9.8z"/><path class="st2" d="M100.6 32.8h9.8v9.8h-9.8z"/><circle cx="105.5" cy="37.6" r="1.9"/></g><g class="st1"><path class="st2" d="M100.6 23h9.8v9.8h-9.8z"/><path class="st2" d="M100.6 23h9.8v9.8h-9.8z"/><circle cx="105.5" cy="27.9" r="1.9"/></g><g class="st1"><path class="st2" d="M100.6 13.3h9.8v9.8h-9.8z"/><path class="st2" d="M100.6 13.3h9.8v9.8h-9.8z"/><circle cx="105.5" cy="18.1" r="1.9"/></g><g class="st1"><path class="st2" d="M100.6 3.5h9.8v9.8h-9.8z"/><path class="st2" d="M100.6 3.5h9.8v9.8h-9.8z"/><circle cx="105.5" cy="8.4" r="1.9"/></g><g class="st1"><path class="st2" d="M90.8 179h9.8v9.8h-9.8z"/><path class="st2" d="M90.8 179h9.8v9.8h-9.8z"/><circle cx="95.7" cy="183.9" r="1.9"/></g><g class="st1"><path class="st2" d="M90.8 169.3h9.8v9.8h-9.8z"/><path class="st2" d="M90.8 169.3h9.8v9.8h-9.8z"/><circle cx="95.7" cy="174.1" r="1.9"/></g><g class="st1"><path class="st2" d="M90.8 159.5h9.8v9.8h-9.8z"/><path class="st2" d="M90.8 159.5h9.8v9.8h-9.8z"/><circle cx="95.7" cy="164.4" r="1.9"/></g><g class="st1"><path class="st2" d="M90.8 149.8h9.8v9.8h-9.8z"/><path class="st2" d="M90.8 149.8h9.8v9.8h-9.8z"/><circle cx="95.7" cy="154.6" r="1.9"/></g><g class="st1"><path class="st2" d="M90.8 140h9.8v9.8h-9.8z"/><path class="st2" d="M90.8 140h9.8v9.8h-9.8z"/><circle cx="95.7" cy="144.9" r="1.9"/></g><g class="st1"><path class="st2" d="M90.8 130.3h9.8v9.8h-9.8z"/><path class="st2" d="M90.8 130.3h9.8v9.8h-9.8z"/><circle cx="95.7" cy="135.1" r="1.9"/></g><g class="st1"><path class="st2" d="M90.8 120.5h9.8v9.8h-9.8z"/><path class="st2" d="M90.8 120.5h9.8v9.8h-9.8z"/><circle cx="95.7" cy="125.4" r="1.9"/></g><g class="st1"><path class="st2" d="M90.8 110.8h9.8v9.8h-9.8z"/><path class="st2" d="M90.8 110.8h9.8v9.8h-9.8z"/><circle cx="95.7" cy="115.6" r="1.9"/></g><g class="st1"><path class="st2" d="M90.8 101h9.8v9.8h-9.8z"/><path class="st2" d="M90.8 101h9.8v9.8h-9.8z"/><circle cx="95.7" cy="105.9" r="1.9"/></g><g class="st1"><path class="st2" d="M90.8 91.3h9.8v9.8h-9.8z"/><path class="st2" d="M90.8 91.3h9.8v9.8h-9.8z"/><circle cx="95.7" cy="96.1" r="1.9"/></g><g class="st1"><path class="st2" d="M90.8 81.5h9.8v9.8h-9.8z"/><path class="st2" d="M90.8 81.5h9.8v9.8h-9.8z"/><circle cx="95.7" cy="86.4" r="1.9"/></g><g class="st1"><path class="st2" d="M90.8 71.8h9.8v9.8h-9.8z"/><path class="st2" d="M90.8 71.8h9.8v9.8h-9.8z"/><circle cx="95.7" cy="76.6" r="1.9"/></g><g class="st1"><path class="st2" d="M90.8 62h9.8v9.8h-9.8z"/><path class="st2" d="M90.8 62h9.8v9.8h-9.8z"/><circle cx="95.7" cy="66.9" r="1.9"/></g><g class="st1"><path class="st2" d="M90.8 52.3h9.8v9.8h-9.8z"/><path class="st2" d="M90.8 52.3h9.8v9.8h-9.8z"/><circle cx="95.7" cy="57.1" r="1.9"/></g><g class="st1"><path class="st2" d="M90.8 42.5h9.8v9.8h-9.8z"/><path class="st2" d="M90.8 42.5h9.8v9.8h-9.8z"/><circle cx="95.7" cy="47.4" r="1.9"/></g><g class="st1"><path class="st2" d="M90.8 32.8h9.8v9.8h-9.8z"/><path class="st2" d="M90.8 32.8h9.8v9.8h-9.8z"/><circle cx="95.7" cy="37.6" r="1.9"/></g><g class="st1"><path class="st2" d="M90.8 23h9.8v9.8h-9.8z"/><path class="st2" d="M90.8 23h9.8v9.8h-9.8z"/><circle cx="95.7" cy="27.9" r="1.9"/></g><g class="st1"><path class="st2" d="M90.8 13.3h9.8v9.8h-9.8z"/><path class="st2" d="M90.8 13.3h9.8v9.8h-9.8z"/><circle cx="95.7" cy="18.1" r="1.9"/></g><g class="st1"><path class="st2" d="M90.8 3.5h9.8v9.8h-9.8z"/><path class="st2" d="M90.8 3.5h9.8v9.8h-9.8z"/><circle cx="95.7" cy="8.4" r="1.9"/></g><g class="st1"><path class="st2" d="M81.1 179h9.8v9.8h-9.8z"/><path class="st2" d="M81.1 179h9.8v9.8h-9.8z"/><circle cx="86" cy="183.9" r="1.9"/></g><g class="st1"><path class="st2" d="M81.1 169.3h9.8v9.8h-9.8z"/><path class="st2" d="M81.1 169.3h9.8v9.8h-9.8z"/><circle cx="86" cy="174.1" r="1.9"/></g><g class="st1"><path class="st2" d="M81.1 159.5h9.8v9.8h-9.8z"/><path class="st2" d="M81.1 159.5h9.8v9.8h-9.8z"/><circle cx="86" cy="164.4" r="1.9"/></g><g class="st1"><path class="st2" d="M81.1 149.8h9.8v9.8h-9.8z"/><path class="st2" d="M81.1 149.8h9.8v9.8h-9.8z"/><circle cx="86" cy="154.6" r="1.9"/></g><g class="st1"><path class="st2" d="M81.1 140h9.8v9.8h-9.8z"/><path class="st2" d="M81.1 140h9.8v9.8h-9.8z"/><circle cx="86" cy="144.9" r="1.9"/></g><g class="st1"><path class="st2" d="M81.1 130.3h9.8v9.8h-9.8z"/><path class="st2" d="M81.1 130.3h9.8v9.8h-9.8z"/><circle cx="86" cy="135.1" r="1.9"/></g><g class="st1"><path class="st2" d="M81.1 120.5h9.8v9.8h-9.8z"/><path class="st2" d="M81.1 120.5h9.8v9.8h-9.8z"/><circle cx="86" cy="125.4" r="1.9"/></g><g class="st1"><path class="st2" d="M81.1 110.8h9.8v9.8h-9.8z"/><path class="st2" d="M81.1 110.8h9.8v9.8h-9.8z"/><circle cx="86" cy="115.6" r="1.9"/></g><g class="st1"><path class="st2" d="M81.1 101h9.8v9.8h-9.8z"/><path class="st2" d="M81.1 101h9.8v9.8h-9.8z"/><circle cx="86" cy="105.9" r="1.9"/></g><g class="st1"><path class="st2" d="M81.1 91.3h9.8v9.8h-9.8z"/><path class="st2" d="M81.1 91.3h9.8v9.8h-9.8z"/><circle cx="86" cy="96.1" r="1.9"/></g><g class="st1"><path class="st2" d="M81.1 81.5h9.8v9.8h-9.8z"/><path class="st2" d="M81.1 81.5h9.8v9.8h-9.8z"/><circle cx="86" cy="86.4" r="1.9"/></g><g class="st1"><path class="st2" d="M81.1 71.8h9.8v9.8h-9.8z"/><path class="st2" d="M81.1 71.8h9.8v9.8h-9.8z"/><circle cx="86" cy="76.6" r="1.9"/></g><g class="st1"><path class="st2" d="M81.1 62h9.8v9.8h-9.8z"/><path class="st2" d="M81.1 62h9.8v9.8h-9.8z"/><circle cx="86" cy="66.9" r="1.9"/></g><g class="st1"><path class="st2" d="M81.1 52.3h9.8v9.8h-9.8z"/><path class="st2" d="M81.1 52.3h9.8v9.8h-9.8z"/><circle cx="86" cy="57.1" r="1.9"/></g><g class="st1"><path class="st2" d="M81.1 42.5h9.8v9.8h-9.8z"/><path class="st2" d="M81.1 42.5h9.8v9.8h-9.8z"/><circle cx="86" cy="47.4" r="1.9"/></g><g class="st1"><path class="st2" d="M81.1 32.8h9.8v9.8h-9.8z"/><path class="st2" d="M81.1 32.8h9.8v9.8h-9.8z"/><circle cx="86" cy="37.6" r="1.9"/></g><g class="st1"><path class="st2" d="M81.1 23h9.8v9.8h-9.8z"/><path class="st2" d="M81.1 23h9.8v9.8h-9.8z"/><circle cx="86" cy="27.9" r="1.9"/></g><g class="st1"><path class="st2" d="M81.1 13.3h9.8v9.8h-9.8z"/><path class="st2" d="M81.1 13.3h9.8v9.8h-9.8z"/><circle cx="86" cy="18.1" r="1.9"/></g><g class="st1"><path class="st2" d="M81.1 3.5h9.8v9.8h-9.8z"/><path class="st2" d="M81.1 3.5h9.8v9.8h-9.8z"/><circle cx="86" cy="8.4" r="1.9"/></g><g class="st1"><path class="st2" d="M71.3 179h9.8v9.8h-9.8z"/><path class="st2" d="M71.3 179h9.8v9.8h-9.8z"/><circle cx="76.2" cy="183.9" r="1.9"/></g><g class="st1"><path class="st2" d="M71.3 169.3h9.8v9.8h-9.8z"/><path class="st2" d="M71.3 169.3h9.8v9.8h-9.8z"/><circle cx="76.2" cy="174.1" r="1.9"/></g><g class="st1"><path class="st2" d="M71.3 159.5h9.8v9.8h-9.8z"/><path class="st2" d="M71.3 159.5h9.8v9.8h-9.8z"/><circle cx="76.2" cy="164.4" r="1.9"/></g><g class="st1"><path class="st2" d="M71.3 149.8h9.8v9.8h-9.8z"/><path class="st2" d="M71.3 149.8h9.8v9.8h-9.8z"/><circle cx="76.2" cy="154.6" r="1.9"/></g><g class="st1"><path class="st2" d="M71.3 140h9.8v9.8h-9.8z"/><path class="st2" d="M71.3 140h9.8v9.8h-9.8z"/><circle cx="76.2" cy="144.9" r="1.9"/></g><g class="st1"><path class="st2" d="M71.3 130.3h9.8v9.8h-9.8z"/><path class="st2" d="M71.3 130.3h9.8v9.8h-9.8z"/><circle cx="76.2" cy="135.1" r="1.9"/></g><g class="st1"><path class="st2" d="M71.3 120.5h9.8v9.8h-9.8z"/><path class="st2" d="M71.3 120.5h9.8v9.8h-9.8z"/><circle cx="76.2" cy="125.4" r="1.9"/></g><g class="st1"><path class="st2" d="M71.3 110.8h9.8v9.8h-9.8z"/><path class="st2" d="M71.3 110.8h9.8v9.8h-9.8z"/><circle cx="76.2" cy="115.6" r="1.9"/></g><g class="st1"><path class="st2" d="M71.3 101h9.8v9.8h-9.8z"/><path class="st2" d="M71.3 101h9.8v9.8h-9.8z"/><circle cx="76.2" cy="105.9" r="1.9"/></g><g class="st1"><path class="st2" d="M71.3 91.3h9.8v9.8h-9.8z"/><path class="st2" d="M71.3 91.3h9.8v9.8h-9.8z"/><circle cx="76.2" cy="96.1" r="1.9"/></g><g class="st1"><path class="st2" d="M71.3 81.5h9.8v9.8h-9.8z"/><path class="st2" d="M71.3 81.5h9.8v9.8h-9.8z"/><circle cx="76.2" cy="86.4" r="1.9"/></g><g class="st1"><path class="st2" d="M71.3 71.8h9.8v9.8h-9.8z"/><path class="st2" d="M71.3 71.8h9.8v9.8h-9.8z"/><circle cx="76.2" cy="76.6" r="1.9"/></g><g class="st1"><path class="st2" d="M71.3 62h9.8v9.8h-9.8z"/><path class="st2" d="M71.3 62h9.8v9.8h-9.8z"/><circle cx="76.2" cy="66.9" r="1.9"/></g><g class="st1"><path class="st2" d="M71.3 52.3h9.8v9.8h-9.8z"/><path class="st2" d="M71.3 52.3h9.8v9.8h-9.8z"/><circle cx="76.2" cy="57.1" r="1.9"/></g><g class="st1"><path class="st2" d="M71.3 42.5h9.8v9.8h-9.8z"/><path class="st2" d="M71.3 42.5h9.8v9.8h-9.8z"/><circle cx="76.2" cy="47.4" r="1.9"/></g><g class="st1"><path class="st2" d="M71.3 32.8h9.8v9.8h-9.8z"/><path class="st2" d="M71.3 32.8h9.8v9.8h-9.8z"/><circle cx="76.2" cy="37.6" r="1.9"/></g><g class="st1"><path class="st2" d="M71.3 23h9.8v9.8h-9.8z"/><path class="st2" d="M71.3 23h9.8v9.8h-9.8z"/><circle cx="76.2" cy="27.9" r="1.9"/></g><g class="st1"><path class="st2" d="M71.3 13.3h9.8v9.8h-9.8z"/><path class="st2" d="M71.3 13.3h9.8v9.8h-9.8z"/><circle cx="76.2" cy="18.1" r="1.9"/></g><g class="st1"><path class="st2" d="M71.3 3.5h9.8v9.8h-9.8z"/><path class="st2" d="M71.3 3.5h9.8v9.8h-9.8z"/><circle cx="76.2" cy="8.4" r="1.9"/></g></g><path class="st3" d="M278.8 86.3h-73.7c-2.8 0-5-2.2-5-5V57.7c0-3.2 2.6-5.8 5.8-5.8h72c3.2 0 5.8 2.6 5.8 5.8v23.6c.1 2.8-2.1 5-4.9 5zM206 53.9c-2.1 0-3.8 1.7-3.8 3.8v23.6c0 1.7 1.3 3 3 3h73.7c1.7 0 3-1.3 3-3V57.7c0-2.1-1.7-3.8-3.8-3.8H206z"/><path class="st3" d="M281.7 144.2c-.6 0-1-.4-1-1s.4-1 1-1c3 0 8.2-5.7 12-16.3 8.4-23.7.5-40.9-9.7-49.1-.4-.3-.5-1-.2-1.4.3-.4 1-.5 1.4-.2 7.6 6.1 12.1 14.5 13.4 24.9 1.1 8.3 0 17.7-3.1 26.4-3.6 10.4-9.3 17.7-13.8 17.7zM202.3 144.2c-4.5 0-10.2-7.2-13.8-17.6-3.1-8.7-4.2-18.1-3.1-26.4 1.3-10.4 5.8-18.8 13.4-24.9.4-.3 1.1-.3 1.4.2.3.4.3 1.1-.2 1.4-10.1 8.2-18 25.3-9.7 49.1 3.7 10.6 8.9 16.3 12 16.3.6 0 1 .4 1 1s-.5.9-1 .9z"/><path class="st4" d="M282.9 110.9V184h-81.7v-73.1c0-2.7 2.2-4.8 4.8-4.8h72c2.7-.1 4.8 2.1 4.9 4.8z"/><path class="st5" d="M212.7 98.9h17.1c1.6 0 2.8 1.3 2.8 2.8v4.4h-22.7v-4.4c0-1.6 1.2-2.8 2.8-2.8zM274.1 106h-22.7v-4.4c0-1.6 1.3-2.8 2.8-2.8h17.1c1.6 0 2.8 1.3 2.8 2.8v4.4z"/><path class="st6" d="M212.7 45.7h17.1c1.6 0 2.8 1.3 2.8 2.8v4.4h-22.7v-4.4c0-1.5 1.2-2.8 2.8-2.8z"/><path class="st3" d="M232.6 53.9h-22.7c-.6 0-1-.4-1-1v-4.4c0-2.1 1.7-3.8 3.8-3.8h17.1c2.1 0 3.8 1.7 3.8 3.8v4.4c0 .6-.5 1-1 1zm-21.7-2h20.7v-3.4c0-1-.8-1.8-1.8-1.8h-17.1c-1 0-1.8.8-1.8 1.8v3.4z"/><path class="st6" d="M274.1 52.9h-22.7v-4.4c0-1.6 1.3-2.8 2.8-2.8h17.1c1.6 0 2.8 1.3 2.8 2.8v4.4z"/><path class="st3" d="M274.1 53.9h-22.7c-.6 0-1-.4-1-1v-4.4c0-2.1 1.7-3.8 3.8-3.8h17.1c2.1 0 3.8 1.7 3.8 3.8v4.4c0 .5-.4 1-1 1zm-21.7-2h20.7v-3.4c0-1-.8-1.8-1.8-1.8h-17.1c-1 0-1.8.8-1.8 1.8v3.4z"/><circle class="st3" cx="282.7" cy="76.1" r="2.9"/><circle class="st3" cx="200.3" cy="76.1" r="2.9"/><circle class="st3" cx="226.8" cy="116.8" r="3.1"/><g><ellipse transform="rotate(-80.781 257.212 116.786)" class="st3" cx="257.2" cy="116.8" rx="3.1" ry="3.1"/></g><g><path class="st6" d="M242.1 121.6c1.6 0 2.9 1.3 2.9 2.9v2.6c0 1.6-1.3 2.9-2.9 2.9-1.6 0-2.9-1.3-2.9-2.9v-2.6c0-1.6 1.3-2.9 2.9-2.9z"/></g></svg>
